<?xml version="1.0" standalone="no"?>
<!DOCTYPE svg PUBLIC "-//W3C//DTD SVG 1.1//EN" "http://www.w3.org/Graphics/SVG/1.1/DTD/svg11.dtd" >
<svg>
<metadata>
Created by FontForge 20090914 at Sat Apr 28 04:35:19 2012
 By www-data
Copyright (c) Beno&#194;&#148;t Sj&#194;&#153;holm, 2009. All rights reserved.
</metadata>
<defs>
<font id="Ageoneserif" horiz-adv-x="542" >
  <font-face 
    font-family="Ageone serif"
    font-weight="400"
    font-stretch="normal"
    units-per-em="1000"
    panose-1="0 0 0 0 0 0 0 0 0 0"
    ascent="750"
    descent="-250"
    x-height="546"
    cap-height="748"
    bbox="-86 -233.999 888 761"
    underline-thickness="50"
    underline-position="-50"
    unicode-range="U+0020-U+FB02"
  />
<missing-glyph horiz-adv-x="245" 
 />
    <glyph glyph-name=".notdef" horiz-adv-x="245" 
 />
    <glyph glyph-name="space" unicode=" " horiz-adv-x="245" 
 />
    <glyph glyph-name="space" unicode="&#xa0;" horiz-adv-x="245" 
 />
    <glyph glyph-name="exclam" unicode="!" horiz-adv-x="165" 
d="M47 0c-13.333 0 -25 4.83301 -35 14.5s-15 21.5 -15 35.5c0 13.333 5 25 15 35s21.667 15 35 15c14 0 25.833 -5 35.5 -15s14.5 -21.667 14.5 -35c0 -14 -4.83301 -25.833 -14.5 -35.5s-21.5 -14.5 -35.5 -14.5zM0 748h95l-10 -542h-75z" />
    <glyph glyph-name="ampersand" unicode="&#x26;" horiz-adv-x="558" 
d="M498 229l-74.002 0.00195312c22 -25.333 33 -57 33 -95v-134h-242c-28 0 -55 4.83301 -81 14.5s-48.833 24.167 -68.5 43.5s-35.5 43.166 -47.5 71.499s-18 61.166 -18 98.499c0 22 2.33301 41.333 7 58s10.834 31.334 18.501 44.001s16.5 23.5 26.5 32.5
s20.667 16.833 32 23.5c-25.333 15.333 -45.666 34.666 -60.999 57.999s-23 50.666 -23 81.999v49c0 27.333 6 51.833 18 73.5s28 40 48 55s43 26.333 69 34s53 11.5 81 11.5h8c28 0 55 -3.83301 81 -11.5s49 -19 69 -34s36 -33.333 48 -55s18 -46.167 18 -73.5v-49
c0 -27.333 -6 -51.666 -18 -72.999s-28 -39.5 -48 -54.5s-43 -26.5 -69 -34.5s-53 -12 -81 -12h-8h-11c-4 0 -7.66699 0.333008 -11 1c-39.333 -13.333 -65.833 -31.333 -79.5 -54s-20.5 -49.334 -20.5 -80.001c0 -26 2.66699 -49.667 8 -71s14 -39.833 26 -55.5
s27.333 -27.667 46 -36s41.334 -12.5 68.001 -12.5h122h7v135c-0.666992 11.333 -4.83398 22.333 -12.501 33s-18.167 16.334 -31.5 17.001h-103v24c9.33301 4.66699 21 9.33398 35 14.001s33.333 7 58 7h88c24.667 0 44 -2.33301 58 -7s25.667 -9.33398 35 -14.001v-24z
M87.998 529.002c0 -18.667 2.83301 -36.167 8.5 -52.5s14 -30.5 25 -42.5s24.333 -21.333 40 -28s33.834 -10 54.501 -10h8c20 0 38 3.33301 54 10s29.333 16 40 28s18.834 26.167 24.501 42.5s8.5 33.833 8.5 52.5v43c0 18.667 -2.83301 36.167 -8.5 52.5
s-13.834 30.5 -24.501 42.5s-24 21.5 -40 28.5s-34 10.5 -54 10.5h-8c-20.667 0 -38.834 -3.5 -54.501 -10.5s-29 -16.5 -40 -28.5s-19.333 -26.167 -25 -42.5s-8.5 -33.833 -8.5 -52.5v-43z" />
    <glyph glyph-name="quotesingle" unicode="'" horiz-adv-x="186" 
d="M0 467c7.33301 10.667 14.334 22.667 21.001 36c5.33301 11.333 10.166 25.5 14.499 42.5s6.5 36.833 6.5 59.5v143h74v-143c0 -22 -4.16699 -41.5 -12.5 -58.5s-17.5 -31.5 -27.5 -43.5c-12 -14 -25 -26 -39 -36h-37z" />
    <glyph glyph-name="comma" unicode="," horiz-adv-x="186" 
d="M0 -86c7.33301 10.667 14.333 22.667 21 36c5.33301 11.333 10.333 25.5 15 42.5s7 36.833 7 59.5v48h73v-48c0 -22 -4.16699 -41.5 -12.5 -58.5s-17.5 -31.5 -27.5 -43.5c-12 -14 -25 -26 -39 -36h-37z" />
    <glyph glyph-name="hyphen" unicode="-" horiz-adv-x="409" 
d="M339 249h-339v70h339v-70z" />
    <glyph glyph-name="period" unicode="." horiz-adv-x="143" 
d="M73 0h-73v100h73v-100z" />
    <glyph glyph-name="zero" unicode="0" horiz-adv-x="567" 
d="M281 761c28 0 55 -4 81 -12s49 -19.5 69 -34.5s36 -33.167 48 -54.5s18 -45.666 18 -72.999v-426c0 -27.333 -6 -51.666 -18 -72.999s-28 -39.5 -48 -54.5s-43 -26.5 -69 -34.5s-53 -12 -81 -12h-64c-28 0 -55 4 -81 12s-49 19.5 -69 34.5s-36.167 33.167 -48.5 54.5
s-18.5 45.666 -18.5 72.999v426c0 27.333 6.16699 51.666 18.5 72.999s28.5 39.5 48.5 54.5s43 26.5 69 34.5s53 12 81 12h64zM408 583c0 38 -11 69.833 -33 95.5s-53.333 38.5 -94 38.5h-64c-41.333 0 -73 -12.833 -95 -38.5s-33 -57.5 -33 -95.5v-418
c0 -38 11 -69.833 33 -95.5s53.667 -38.5 95 -38.5h64c40.667 0 72 12.833 94 38.5s33 57.5 33 95.5v418z" />
    <glyph glyph-name="one" unicode="1" horiz-adv-x="340" 
d="M270 0h-95.001v705h-82c-24 0 -43.167 2 -57.5 6s-26.166 9 -35.499 15v22h270v-748z" />
    <glyph glyph-name="two" unicode="2" horiz-adv-x="587" 
d="M424 44c24 0 43.1689 -2.00195 57.502 -6.00195s26.166 -9.33301 35.499 -16v-22h-517v228c0 32.667 5 59.834 15 81.501s22.5 39.5 37.5 53.5s31.667 24.833 50 32.5s35.5 13.834 51.5 18.501l36 10l47.5 12.5l52.5 13.5l53 14c26.667 7.33301 46.5 20.666 59.5 39.999
s19.5 40.666 19.5 63.999c0 20 -3.5 38.333 -10.5 55s-17.167 31.167 -30.5 43.5s-29.5 22 -48.5 29s-40.5 10.5 -64.5 10.5h-112c-24 0 -43.167 2 -57.5 6s-26.166 9 -35.499 15v22h232c28 0 55.167 -3.83301 81.5 -11.5s49.666 -19.167 69.999 -34.5
s37 -34.666 50 -57.999s19.833 -50.666 20.5 -81.999c0 -18.667 -3 -36.5 -9 -53.5s-14.5 -32.5 -25.5 -46.5s-23.833 -25.833 -38.5 -35.5s-30.667 -16.5 -48 -20.5c-4 -1.33301 -15.167 -4.33301 -33.5 -9l-59 -15.5l-60 -16l-36.5 -9.5
c-22 -6.66699 -40.333 -14.5 -55 -23.5s-26.334 -19.333 -35.001 -31s-14.667 -24.5 -18 -38.5s-5 -29 -5 -45v-175h330z" />
    <glyph glyph-name="three" unicode="3" horiz-adv-x="582" 
d="M0 0l0.000976562 22.0029c9.33301 6.66699 21 12 35 16s33.333 6 58 6h152c16 0 34.333 1.16699 55 3.5s40.334 8.16602 59.001 17.499s34.167 22.833 46.5 40.5s18.166 42.167 17.499 73.5v74c0.666992 30.667 -5.16602 55.167 -17.499 73.5
s-27.833 32.166 -46.5 41.499s-38.334 15.5 -59.001 18.5s-39 4.5 -55 4.5h-193v41h138c16 0 34.167 1.5 54.5 4.5s39.5 9.16699 57.5 18.5s33.333 23.166 46 41.499s19.334 42.833 20.001 73.5s-5.16602 55 -17.499 73s-27.833 31.667 -46.5 41
s-38.334 15.166 -59.001 17.499s-39 3.5 -55 3.5h-97c-24.667 0 -44 2 -58 6s-25.667 9 -35 15v22h216c13.333 0 28.833 -0.666992 46.5 -2s35.5 -4.16602 53.5 -8.49902s35.5 -10.333 52.5 -18s32.167 -18 45.5 -31s24 -28.833 32 -47.5s11.667 -41 11 -67v-7
c0.666992 -19.333 -1.33301 -36.666 -6 -51.999s-11 -29 -19 -41s-17.5 -22.333 -28.5 -31s-22.833 -16 -35.5 -22c18 -4 35.833 -10 53.5 -18s33.167 -18.5 46.5 -31.5s24.166 -28.833 32.499 -47.5s12.166 -41.334 11.499 -68.001v-81
c0.666992 -39.333 -7.5 -70.5 -24.5 -93.5s-38.167 -40.5 -63.5 -52.5s-52 -19.833 -80 -23.5s-52.333 -5.5 -73 -5.5h-271z" />
    <glyph glyph-name="four" unicode="4" horiz-adv-x="556" 
d="M216 275c-28 0 -55 4.00098 -81 12.001s-49 19.5 -69 34.5s-36 33.167 -48 54.5s-18 45.666 -18 72.999v299h94v-295c0 -38 10 -69.833 30 -95.5s50.667 -38.5 92 -38.5h54c44.667 0 85.334 -9.66699 122.001 -29v458h94v-748h-88v142
c0 18.667 -2.83301 36.167 -8.5 52.5s-14 30.5 -25 42.5s-24.333 21.333 -40 28s-33.834 10 -54.501 10h-54z" />
    <glyph glyph-name="five" unicode="5" horiz-adv-x="557" 
d="M1 419v328.999h430v-22c-9.33301 -6 -21 -11 -35 -15s-33.333 -6 -58 -6h-243v-243h176c28 0 55 -3.83301 81 -11.5s49 -19 69 -34s36 -33.333 48 -55s18 -46.167 18 -73.5v-114c0 -27.333 -6 -51.666 -18 -72.999s-28 -39.5 -48 -54.5s-43 -26.5 -69 -34.5
s-53 -12 -81 -12h-270v22c9.33301 6.66699 21 12 35 16s33.333 6 58 6h177c41.333 0 72.833 12.833 94.5 38.5s32.5 57.5 32.5 95.5v107c0 38 -10.833 69.833 -32.5 95.5s-53.167 38.5 -94.5 38.5h-270z" />
    <glyph glyph-name="six" unicode="6" horiz-adv-x="566" 
d="M496 161c0 -27.333 -6.00098 -51.666 -18.001 -72.999s-28 -39.5 -48 -54.5s-43 -26.5 -69 -34.5s-53 -12 -81 -12h-64c-28 0 -55 4 -81 12s-49 19.5 -69 34.5s-36 33.167 -48 54.5s-18 45.666 -18 72.999v127c0 27.333 6 51.833 18 73.5s28 40 48 55s43 26.333 69 34
s53 11.5 81 11.5h211v-43h-211c-41.333 0 -72.833 -12.833 -94.5 -38.5s-32.5 -57.5 -32.5 -95.5v-120c0 -38 10.833 -69.833 32.5 -95.5s53.167 -38.5 94.5 -38.5h64c41.333 0 72.833 12.833 94.5 38.5s32.5 57.5 32.5 95.5v120v286c0 38 -10.833 69.833 -32.5 95.5
s-53.167 38.5 -94.5 38.5h-93c-24 0 -43.167 2 -57.5 6s-26.166 9 -35.499 15v22h186c28 0 55 -3.83301 81 -11.5s49 -19 69 -34s36 -33.333 48 -55s18 -46.167 18 -73.5v-413z" />
    <glyph glyph-name="seven" unicode="7" horiz-adv-x="478" 
d="M402 748l-192 -748h-90l108 419h-68c-24.667 0 -44 2 -58 6s-25.667 9 -35 15v22h172l63 243h-209c-24.667 0 -44 2 -58 6s-25.667 9 -35 15v22h402z" />
    <glyph glyph-name="eight" unicode="8" horiz-adv-x="586" 
d="M300 462c28 0 55 -4 81 -12s49 -19.5 69 -34.5s36 -33.167 48 -54.5s18 -45.666 18 -72.999v-127c0 -27.333 -6 -51.666 -18 -72.999s-28 -39.5 -48 -54.5s-43 -26.5 -69 -34.5s-53 -12 -81 -12h-84c-28 0 -55 4 -81 12s-49 19.5 -69 34.5s-36 33.167 -48 54.5
s-18 45.666 -18 72.999v127c0 27.333 6 51.666 18 72.999s28 39.5 48 54.5s43 26.5 69 34.5s53 12 81 12h84zM427 284c0 38 -10.833 69.833 -32.5 95.5s-53.167 38.5 -94.5 38.5h-84c-41.333 0 -72.833 -12.833 -94.5 -38.5s-32.5 -57.5 -32.5 -95.5v-119
c0 -38 10.833 -69.833 32.5 -95.5s53.167 -38.5 94.5 -38.5h84c41.333 0 72.833 12.833 94.5 38.5s32.5 57.5 32.5 95.5v119zM293 761c22.667 0 44.667 -3.16699 66 -9.5s40.333 -15.666 57 -27.999s30 -27.5 40 -45.5s15 -38.333 15 -61v-52c0 -22.667 -5 -43 -15 -61
s-23.333 -33.167 -40 -45.5s-35.667 -21.666 -57 -27.999s-43.333 -9.5 -66 -9.5h-70c-22.667 0 -44.667 3.16699 -66 9.5s-40.333 15.666 -57 27.999s-30 27.5 -40 45.5s-15 38.333 -15 61v52c0 22.667 5 43 15 61s23.333 33.167 40 45.5s35.667 21.666 57 27.999
s43.333 9.5 66 9.5h70zM393 614c0 30 -8.83301 55.333 -26.5 76s-42.834 31 -75.501 31h-66c-32.667 0 -57.834 -10.333 -75.501 -31s-26.5 -46 -26.5 -76v-46c0 -30 8.83301 -55.167 26.5 -75.5s42.834 -30.5 75.501 -30.5h66c32.667 0 57.834 10.167 75.501 30.5
s26.5 45.5 26.5 75.5v46z" />
    <glyph glyph-name="nine" unicode="9" horiz-adv-x="567" 
d="M427 273h-210.002c-28 0 -55 3.83301 -81 11.5s-49.167 19 -69.5 34s-36.5 33.333 -48.5 55s-18 46.167 -18 73.5v127c0 27.333 6 51.666 18 72.999s28.167 39.5 48.5 54.5s43.5 26.5 69.5 34.5s53 12 81 12h63c28 0 55 -4 81 -12s49 -19.5 69 -34.5
s36.167 -33.167 48.5 -54.5s18.5 -45.666 18.5 -72.999v-127c0 -3.33301 -0.166992 -6.33301 -0.5 -9s-0.5 -5.66699 -0.5 -9h1v-255c0 -27.333 -6.16699 -51.833 -18.5 -73.5s-28.5 -40 -48.5 -55s-43 -26.333 -69 -34s-53 -11.5 -81 -11.5h-185v22c9.33301 6 21 11 35 15
s33.333 6 58 6h92c20.667 0 38.834 3.5 54.501 10.5s29 16.5 40 28.5s19.333 26.167 25 42.5s8.5 33.833 8.5 52.5v273v120c0 38 -11 69.833 -33 95.5s-53.667 38.5 -95 38.5h-63c-41.333 0 -73 -12.833 -95 -38.5s-33 -57.5 -33 -95.5v-120
c0 -18.667 2.83301 -36.167 8.5 -52.5s14 -30.5 25 -42.5s24.333 -21.5 40 -28.5s33.834 -10.5 54.501 -10.5h210v-43z" />
    <glyph glyph-name="colon" unicode=":" horiz-adv-x="143" 
d="M73 195v-100h-73v100h73zM73 467v-100h-73v100h73z" />
    <glyph glyph-name="semicolon" unicode=";" horiz-adv-x="186" 
d="M116 356h-73v100h73v-100zM0 -86c7.33301 10.667 14.333 22.667 21 36c5.33301 11.333 10.333 25.5 15 42.5s7 36.833 7 59.5v143h73v-143c0 -22 -4.16699 -41.5 -12.5 -58.5s-17.5 -31.5 -27.5 -43.5c-12 -14 -25 -26 -39 -36h-37z" />
    <glyph glyph-name="question" unicode="?" horiz-adv-x="523" 
d="M151 0c-14 0 -25.833 5 -35.5 15s-14.5 21.667 -14.5 35c0 14 4.83301 25.833 14.5 35.5s21.5 14.5 35.5 14.5c13.333 0 25 -4.83301 35 -14.5s15 -21.5 15 -35.5c0 -13.333 -5 -25 -15 -35s-21.667 -15 -35 -15zM333 406
c-45.333 -13.333 -79.168 -33.167 -101.501 -59.5s-33.5 -55.833 -33.5 -88.5v-51h-95v60c0 32.667 6.16699 60.334 18.5 83.001s27.5 41.667 45.5 57s37.333 27.333 58 36s39 15.334 55 20.001c26.667 7.33301 46.5 20.666 59.5 39.999s19.5 40.666 19.5 63.999
c0 20 -3.66699 38.333 -11 55s-17.666 31.167 -30.999 43.5s-29.5 22 -48.5 29s-40.167 10.5 -63.5 10.5h-112c-24.667 0 -44 2 -58 6s-25.667 9 -35 15v22h232c28 0 55.167 -3.83301 81.5 -11.5s49.666 -19.167 69.999 -34.5s36.833 -34.666 49.5 -57.999
s19.334 -50.666 20.001 -81.999c0.666992 -18.667 -2 -36.334 -8 -53.001s-14.5 -31.834 -25.5 -45.501s-24 -25.5 -39 -35.5s-30.833 -17.333 -47.5 -22z" />
    <glyph glyph-name="A" unicode="A" horiz-adv-x="605" 
d="M295 760c20 0 44.001 -1.83301 72.001 -5.5s54.667 -11.5 80 -23.5s46.5 -29.667 63.5 -53s25.167 -54.333 24.5 -93v-585h-88v322h-325v-322h-122v40h33v545c-0.666992 38.667 7.66602 69.667 24.999 93s38.5 41 63.5 53s51.5 19.833 79.5 23.5s52.333 5.5 73 5.5h21z
M447.001 362l-0.000976562 220.001c0.666992 28 -4.33301 51.167 -15 69.5s-24.167 32.5 -40.5 42.5s-34.166 16.833 -53.499 20.5s-37.333 5.16699 -54 4.5s-34.5 -2.83398 -53.5 -6.50098s-36.667 -10.5 -53 -20.5s-29.833 -23.833 -40.5 -41.5s-15.667 -40.5 -15 -68.5
v-220h325z" />
    <glyph glyph-name="B" unicode="B" horiz-adv-x="605" 
d="M392 420c18 -4 35.8359 -9.83398 53.5029 -17.501s33.167 -18 46.5 -31s24.166 -29 32.499 -48s12.166 -41.5 11.499 -67.5v-81c0.666992 -39.333 -7.66602 -70.5 -24.999 -93.5s-38.5 -40.5 -63.5 -52.5s-51.5 -19.833 -79.5 -23.5s-52.333 -5.5 -73 -5.5h-295v40h34
v708h206c20.667 0 45 -1.83301 73 -5.5s54.5 -11.5 79.5 -23.5s46.167 -29.667 63.5 -53s25.666 -54.333 24.999 -93v-6c0.666992 -39.333 -7.83301 -70.666 -25.5 -93.999s-38.834 -41 -63.501 -53zM123.003 431.999l90.999 0.00195312c16 0 34.167 1.5 54.5 4.5
s39.5 9.16699 57.5 18.5s33.333 23.166 46 41.499s19.334 42.833 20.001 73.5s-5.16602 55.167 -17.499 73.5s-27.833 32.166 -46.5 41.499s-38.334 15.5 -59.001 18.5s-39 4.5 -55 4.5h-91v-276zM269.002 40.001c16 0 34.333 1.5 55 4.5s40.334 9.16699 59.001 18.5
s34.167 23.166 46.5 41.499s18.166 42.833 17.499 73.5v74c0.666992 30.667 -5.16602 55.167 -17.499 73.5s-27.833 32.333 -46.5 42s-38.334 15.834 -59.001 18.501s-39 4 -55 4h-146v-350h146z" />
    <glyph glyph-name="C" unicode="C" horiz-adv-x="518" 
d="M267 708c-16 0 -34.5 -1.49805 -55.5 -4.49805s-40.833 -9.16699 -59.5 -18.5s-34.167 -23.166 -46.5 -41.499s-18.166 -42.833 -17.499 -73.5v-392c-0.666992 -30.667 5.16602 -55.167 17.499 -73.5s27.833 -32.166 46.5 -41.499s38.5 -15.5 59.5 -18.5
s39.5 -4.5 55.5 -4.5h181v-25c-9.33301 -4.66699 -21 -8.33398 -35 -11.001s-33.333 -4 -58 -4h-115c-13.333 0 -28.666 0.666992 -45.999 2s-35 4.16602 -53 8.49902s-35.667 10.5 -53 18.5s-32.5 18.5 -45.5 31.5s-23.5 28.833 -31.5 47.5s-11.667 41 -11 67v398
c-0.666992 26 3 48.333 11 67s18.5 34.5 31.5 47.5s28.167 23.5 45.5 31.5s35 14.167 53 18.5s35.667 7.16602 53 8.49902s32.666 2 45.999 2h115c24.667 0 44 -1.33301 58 -4s25.667 -6.33398 35 -11.001v-25h-181v0z" />
    <glyph glyph-name="D" unicode="D" horiz-adv-x="606" 
d="M536 175c0.666992 -39.333 -7.66602 -70.5 -24.999 -93.5s-38.5 -40.5 -63.5 -52.5s-51.5 -19.833 -79.5 -23.5s-52.333 -5.5 -73 -5.5h-262h-33v40h33v708h262c20.667 0 45 -1.83301 73 -5.5s54.5 -11.5 79.5 -23.5s46.167 -29.667 63.5 -53s25.666 -54.333 24.999 -93
v-398zM268 40c16 0 34.333 1.50195 55 4.50195s40.334 9.16699 59.001 18.5s34.167 23.166 46.5 41.499s18.166 42.833 17.499 73.5v392c0.666992 30.667 -5.16602 55.167 -17.499 73.5s-27.833 32.166 -46.5 41.499s-38.334 15.5 -59.001 18.5s-39 4.5 -55 4.5h-146v-668
h146z" />
    <glyph glyph-name="E" unicode="E" horiz-adv-x="544" 
d="M267 708c-16 0 -34.5 -1.49805 -55.5 -4.49805s-40.833 -9.16699 -59.5 -18.5s-34.167 -23.166 -46.5 -41.499s-17.833 -42.833 -16.5 -73.5v-174h278v-25c-9.33301 -4.66699 -21 -8.5 -35 -11.5s-33.333 -4.5 -58 -4.5h-185v-177
c-1.33301 -30.667 4.16699 -55.167 16.5 -73.5s27.833 -32.166 46.5 -41.499s38.5 -15.5 59.5 -18.5s39.5 -4.5 55.5 -4.5h207v-25c-9.33301 -4.66699 -21 -8.33398 -35 -11.001s-33.333 -4 -58 -4h-141c-13.333 0 -28.666 0.666992 -45.999 2s-35 4.16602 -53 8.49902
s-35.667 10.5 -53 18.5s-32.5 18.5 -45.5 31.5s-23.5 28.833 -31.5 47.5s-11.667 41 -11 67v398c-0.666992 26 3 48.333 11 67s18.5 34.5 31.5 47.5s28.167 23.5 45.5 31.5s35 14.167 53 18.5s35.667 7.16602 53 8.49902s32.666 2 45.999 2h141c24.667 0 44 -1.33301 58 -4
s25.667 -6.33398 35 -11.001v-25h-207v0z" />
    <glyph glyph-name="F" unicode="F" horiz-adv-x="484" 
d="M267 708c-16 0 -34.333 -1.49902 -55 -4.49902s-40.334 -9.16699 -59.001 -18.5s-34.167 -23.166 -46.5 -41.499s-18.166 -42.833 -17.499 -73.5v-174h309v-25c-9.33301 -4.66699 -21 -8.5 -35 -11.5s-33.333 -4.5 -58 -4.5h-216v-315h33v-40h-122v573
c-0.666992 26 3 48.333 11 67s18.5 34.5 31.5 47.5s28.167 23.5 45.5 31.5s35 14.167 53 18.5s35.667 7.16602 53 8.49902s33 2 47 2h128c24 0 43 -1.33301 57 -4s25.667 -6.33398 35 -11.001v-25h-194v0z" />
    <glyph glyph-name="G" unicode="G" horiz-adv-x="562" 
d="M493 33v-17.999c-9.33301 -4.66699 -21 -8.33398 -35 -11.001s-33.333 -4 -58 -4h-159c-20.667 -0 -45 1.83301 -73 5.5s-54.5 11.5 -79.5 23.5s-46.167 29.5 -63.5 52.5s-25.666 54.167 -24.999 93.5v398c-0.666992 38.667 7.66602 69.667 24.999 93s38.5 41 63.5 53
s51.5 19.833 79.5 23.5s52.333 5.5 73 5.5h119c24.667 0 44 -1.33301 58 -4s25.667 -6.33398 35 -11.001v-25h-186c-16 0 -34.333 -1.5 -55 -4.5s-40.334 -9.16699 -59.001 -18.5s-34.167 -23.166 -46.5 -41.499s-18.166 -42.833 -17.499 -73.5v-392
c-0.666992 -30.667 5.16602 -55.167 17.499 -73.5s27.833 -32.166 46.5 -41.499s38.334 -15.5 59.001 -18.5s39 -4.5 55 -4.5h140v266c0 11.333 -3.83301 22.166 -11.5 32.499s-18.167 15.833 -31.5 16.5l-155 1v24c9.33301 4.66699 21 9.16699 35 13.5s33.333 6.5 58 6.5
h52c42 0 75.667 -12.667 101 -38s38 -59 38 -101v-228z" />
    <glyph glyph-name="H" unicode="H" horiz-adv-x="616" 
d="M546 748v-748h-89v356h-335v-356h-88v0h-34v40h34l-1 668h-33v40h34h88v-352h335v352h89z" />
    <glyph glyph-name="I" unicode="I" horiz-adv-x="227" 
d="M124 708v-708h-89v748h122v-40h-33z" />
    <glyph glyph-name="J" unicode="J" horiz-adv-x="344" 
d="M274 748l-0.000976562 -40h-33v-533c0.666992 -39.333 -7.66602 -70.5 -24.999 -93.5s-38.5 -40.5 -63.5 -52.5s-51.5 -19.833 -79.5 -23.5s-52.333 -5.5 -73 -5.5v41c16.667 0.666992 34 3.16699 52 7.5s34.5 11.5 49.5 21.5s27.333 23.833 37 41.5
s14.167 40.167 13.5 67.5v569h122z" />
    <glyph glyph-name="K" unicode="K" horiz-adv-x="568" 
d="M122 354v-354h-89v708h-33v40h122v-303l1 1l219 215h83l-152 -154l247 -507h-102l-207 445z" />
    <glyph glyph-name="L" unicode="L" horiz-adv-x="506" 
d="M364 41c24 -1.33301 43 -3.16699 57 -5.5s25.667 -5.83301 35 -10.5v-25h-182c-14 0 -29.667 0.666992 -47 2s-35 4.16602 -53 8.49902s-35.667 10.5 -53 18.5s-32.5 18.5 -45.5 31.5s-23.5 28.833 -31.5 47.5s-11.667 41 -11 67v533h-33v40h122v-570
c-0.666992 -27.333 3.83301 -49.666 13.5 -66.999s22 -31 37 -41s31.5 -17.167 49.5 -21.5s35.333 -6.83301 52 -7.5h90z" />
    <glyph glyph-name="M" unicode="M" horiz-adv-x="661" 
d="M558 749h33v-40h-29v-709h-88v580l-193 -450l-192 450v-580h-89v749h5v-1h84l192 -466l193 466h84v1v0z" />
    <glyph glyph-name="N" unicode="N" horiz-adv-x="572" 
d="M502 749v-40h-33v-709h-90l-290 605v-605h-89v748v0h89l291 -609v609z" />
    <glyph glyph-name="O" unicode="O" horiz-adv-x="577" 
d="M281 761c28 0 55 -4 81 -12s49 -19.5 69 -34.5s36 -33.167 48 -54.5s18 -45.666 18 -72.999v-426c0 -27.333 -6 -51.666 -18 -72.999s-28 -39.5 -48 -54.5s-43 -26.5 -69 -34.5s-53 -12 -81 -12h-64c-28 0 -55 4 -81 12s-49 19.5 -69 34.5s-36.167 33.167 -48.5 54.5
s-18.5 45.666 -18.5 72.999v426c0 27.333 6.16699 51.666 18.5 72.999s28.5 39.5 48.5 54.5s43 26.5 69 34.5s53 12 81 12h64zM408 583c0 38 -11 69.833 -33 95.5s-53.333 38.5 -94 38.5h-64c-41.333 0 -73 -12.833 -95 -38.5s-33 -57.5 -33 -95.5v-418
c0 -38 11 -69.833 33 -95.5s53.667 -38.5 95 -38.5h64c40.667 0 72 12.833 94 38.5s33 57.5 33 95.5v418z" />
    <glyph glyph-name="P" unicode="P" horiz-adv-x="605" 
d="M535 390c0.666992 -39.333 -7.5 -70.5 -24.5 -93.5s-38.167 -40.5 -63.5 -52.5s-52 -19.833 -80 -23.5s-52 -5.5 -72 -5.5h-173v-215h-89v709h-33v40h295c20 0 44 -1.83301 72 -5.5s54.667 -11.5 80 -23.5s46.5 -29.667 63.5 -53s25.167 -54.333 24.5 -93v-184zM268 255
c16 0 34.5 1.50195 55.5 4.50195s40.833 9.16699 59.5 18.5s34.167 23.166 46.5 41.499s18.166 42.833 17.499 73.5v178c0.666992 30.667 -5.16602 55.167 -17.499 73.5s-27.833 32.166 -46.5 41.499s-38.5 15.5 -59.5 18.5s-39.5 4.5 -55.5 4.5h-146v-454h146z" />
    <glyph glyph-name="Q" unicode="Q" horiz-adv-x="566" 
d="M280 761c28 0 55.001 -3.99902 81.001 -11.999s49 -19.5 69 -34.5s36 -33.167 48 -54.5s18 -45.666 18 -72.999v-426c0 -25.333 -5.16699 -48 -15.5 -68s-24.166 -37.333 -41.499 -52s-37.5 -26.5 -60.5 -35.5s-46.833 -14.5 -71.5 -16.5
c-1.33301 -36.667 -10.833 -65.834 -28.5 -87.501s-38.834 -38.167 -63.501 -49.5s-50.667 -18.666 -78 -21.999s-51 -5 -71 -5v41c16 0.666992 32.5 3 49.5 7s32.833 10.333 47.5 19s27.167 20.667 37.5 36s16.166 35 17.499 59h-2c-28 0 -55 4 -81 12s-49 19.5 -69 34.5
s-36 33.167 -48 54.5s-18 45.666 -18 72.999v426c0 27.333 6 51.666 18 72.999s28 39.5 48 54.5s43 26.5 69 34.5s53 12 81 12h64zM407.001 583.001c0 38 -11 69.833 -33 95.5s-53.333 38.5 -94 38.5h-64c-41.333 0 -73 -12.833 -95 -38.5s-33 -57.5 -33 -95.5v-418
c0 -38 11 -69.833 33 -95.5s53.667 -38.5 95 -38.5h64c40.667 0 72 12.833 94 38.5s33 57.5 33 95.5v418z" />
    <glyph glyph-name="R" unicode="R" horiz-adv-x="606" 
d="M123 0l-88.999 0.00292969v709h-34v40h295c20.667 0 45 -1.83301 73 -5.5s54.667 -11.5 80 -23.5s46.5 -29.667 63.5 -53s25.167 -54.333 24.5 -93v-184c0.666992 -34 -5.33301 -61.5 -18 -82.5s-29 -38.167 -49 -51.5c43.333 -22.667 65.666 -63.334 66.999 -122.001
v-134h-86v179c0 11.333 -3.83301 22.166 -11.5 32.499s-18.167 16.166 -31.5 17.499c-20 -5.33301 -39.833 -9 -59.5 -11s-37.167 -3 -52.5 -3h-172v-215zM123.001 255.003l146 0.00195312c16 0 34.333 1.5 55 4.5s40.334 9.16699 59.001 18.5s34.167 23.166 46.5 41.499
s18.166 42.833 17.499 73.5v178c0.666992 30.667 -5.16602 55.167 -17.499 73.5s-27.833 32.166 -46.5 41.499s-38.334 15.5 -59.001 18.5s-39 4.5 -55 4.5h-146v-454z" />
    <glyph glyph-name="S" unicode="S" horiz-adv-x="552" 
d="M229 706c-23.333 0 -44.5029 -3.49902 -63.5029 -10.499s-35.167 -16.667 -48.5 -29s-23.666 -26.833 -30.999 -43.5s-11 -35 -11 -55c0 -23.333 6.5 -44.666 19.5 -63.999s32.833 -32.666 59.5 -39.999l52.5 -14l53 -13.5l47.5 -12.5l37 -10
c16 -4.66699 33.167 -10.834 51.5 -18.501s35 -18.5 50 -32.5s27.5 -31.833 37.5 -53.5s15 -48.834 15 -81.501c0 -37.333 -6 -70.333 -18 -99s-28 -52.5 -48 -71.5s-43 -33.333 -69 -43s-53 -14.5 -81 -14.5h-301v22c9.33301 6.66699 21 12 35 16s33.333 6 58 6h152
c26.667 0 50.834 4.16699 72.501 12.5s40.334 20.333 56.001 36s27.667 34.167 36 55.5s12.5 45 12.5 71c0 16 -1.66699 31 -5 45s-9.33301 26.833 -18 38.5s-20.167 22 -34.5 31s-32.833 16.833 -55.5 23.5c-5.33301 1.33301 -17.333 4.5 -36 9.5l-60 16l-59 15.5
c-18 4.66699 -29.333 7.66699 -34 9c-17.333 4 -33.333 10.833 -48 20.5s-27.5 21.5 -38.5 35.5s-19.5 29.5 -25.5 46.5s-8.66699 34.5 -8 52.5c0.666992 32 7.33398 59.667 20.001 83s29.167 42.666 49.5 57.999s43.666 26.833 69.999 34.5s53.5 11.5 81.5 11.5h232v-22
c-9.33301 -6 -21 -11 -35 -15s-33.333 -6 -58 -6h-112z" />
    <glyph glyph-name="T" unicode="T" horiz-adv-x="493" 
d="M235 709v-709h-122v40h33v669h-204v40h497v-40h-204z" />
    <glyph glyph-name="U" unicode="U" horiz-adv-x="600" 
d="M530 749v-588c0 -27.333 -6 -51.666 -18 -72.999s-28 -39.5 -48 -54.5s-43 -26.5 -69 -34.5s-53 -12 -81 -12h-64c-28 0 -55 4 -81 12s-49 19.5 -69 34.5s-36 33.167 -48 54.5s-18 45.666 -18 72.999v548h-34v40h122v-584c0 -38 11 -69.833 33 -95.5
s53.667 -38.5 95 -38.5h64c40.667 0 72 12.833 94 38.5s33 57.5 33 95.5v584h89z" />
    <glyph glyph-name="V" unicode="V" horiz-adv-x="532" 
d="M307 0h-96l-186 709h-25v40h103l159 -616l160 616h88z" />
    <glyph glyph-name="W" unicode="W" horiz-adv-x="947" 
d="M305 0h-95l-187 709h-25v40h103l159 -616l160 616h89l-15 -53l146 -563l160 616h88l-203 -749h-96l-140 531z" />
    <glyph glyph-name="X" unicode="X" horiz-adv-x="633" 
d="M563 40l-0.00195312 -40h-122v228c0 38 -11 69.833 -33 95.5s-53.667 38.5 -95 38.5h-63c-41.333 0 -73 -12.833 -95 -38.5s-33 -57.5 -33 -95.5v-228h-89v232c0 36 10.167 66.833 30.5 92.5s46.5 45.5 78.5 59.5c-32 13.333 -58.167 33 -78.5 59s-30.5 57 -30.5 93v173
h-33v40h122v-210c0 -18.667 2.83301 -36.167 8.5 -52.5s14 -30.5 25 -42.5s24.333 -21.333 40 -28s33.834 -10 54.501 -10h63c20.667 0 38.834 3.33301 54.501 10s29 16 40 28s19.333 26.167 25 42.5s8.5 33.833 8.5 52.5v210h89v-213c0 -36 -10.167 -67 -30.5 -93
s-46.5 -45.667 -78.5 -59c32 -14 58.167 -33.833 78.5 -59.5s30.5 -56.5 30.5 -92.5v-192h33z" />
    <glyph glyph-name="Y" unicode="Y" horiz-adv-x="600" 
d="M237 0l-0.000976562 235c-26.667 1.33301 -52.167 6.16602 -76.5 14.499s-46 19.833 -65 34.5s-34.167 32.5 -45.5 53.5s-17 44.5 -17 70.5v301h-33v40h122v-338c0 -18.667 2.83301 -36.167 8.5 -52.5s14 -30.5 25 -42.5s24.333 -21.333 40 -28s33.834 -10 54.501 -10h64
c20 0 38 3.33301 54 10s29.333 16 40 28s18.834 26.167 24.501 42.5s8.5 33.833 8.5 52.5v338h89v-341c0 -26 -5.66699 -49.5 -17 -70.5s-26.5 -39 -45.5 -54s-40.833 -26.667 -65.5 -35s-50.334 -13.166 -77.001 -14.499v-234h-88z" />
    <glyph glyph-name="Z" unicode="Z" horiz-adv-x="543" 
d="M473 0h-473v106l394 601v2h-361v-40h-33v80h473v-105l-391 -604h391v-40z" />
    <glyph glyph-name="a" unicode="a" horiz-adv-x="529" 
d="M459 40v-39.999h-231c-20.667 0 -45 1.83301 -73 5.5s-54.5 11.5 -79.5 23.5s-46.167 29.5 -63.5 52.5s-25.666 54.167 -24.999 93.5c0.666992 40.667 11.5 73.667 32.5 99s48 45 81 59s70.167 22.833 111.5 26.5s83 4.16699 125 1.5v93c0 11.333 -4 22.166 -12 32.499
s-18.667 15.833 -32 16.5l-207 1v24c9.33301 4.66699 21.166 9.16699 35.499 13.5s33.5 6.5 57.5 6.5h107c42 0 75.667 -12.667 101 -38s38.333 -59 39 -101v-369h33zM337 322.001c-34 2 -66.499 1.33398 -97.499 -1.99902s-58.5 -10.333 -82.5 -21
s-43.333 -25.834 -58 -45.501s-22.334 -44.834 -23.001 -75.501s5.16602 -55.167 17.499 -73.5s27.833 -32.166 46.5 -41.499s38.334 -15.5 59.001 -18.5s39 -4.5 55 -4.5h83v282z" />
    <glyph glyph-name="b" unicode="b" horiz-adv-x="508" 
d="M198 546c20 0 44 -1.83301 72 -5.5s54.667 -11.5 80 -23.5s46.5 -29.5 63.5 -52.5s25.167 -53.833 24.5 -92.5v-197c0.666992 -39.333 -7.5 -70.5 -24.5 -93.5s-38.167 -40.5 -63.5 -52.5s-52 -19.833 -80 -23.5s-52 -5.5 -72 -5.5h-231v40h33v708h89v-202h109zM350 368
c0.666992 30.667 -5.16602 55.167 -17.499 73.5s-27.833 32.333 -46.5 42s-38.5 15.834 -59.5 18.501s-39.5 4 -55.5 4h-82v-466h82c16 0 34.5 1.5 55.5 4.5s40.833 9.16699 59.5 18.5s34.167 23.166 46.5 41.499s18.166 42.833 17.499 73.5v190z" />
    <glyph glyph-name="c" unicode="c" horiz-adv-x="455" 
d="M267 506c-16 0 -34.5 -1.33008 -55.5 -3.99707s-40.833 -8.83398 -59.5 -18.501s-34.167 -23.667 -46.5 -42s-17.833 -42.833 -16.5 -73.5v-190c-1.33301 -30.667 4.16699 -55.167 16.5 -73.5s27.833 -32.166 46.5 -41.499s38.5 -15.5 59.5 -18.5s39.5 -4.5 55.5 -4.5
h118v-25c-9.33301 -4.66699 -21 -8.33398 -35 -11.001s-33.333 -4 -58 -4h-52c-13.333 0 -28.666 0.666992 -45.999 2s-35 4.16602 -53 8.49902s-35.667 10.5 -53 18.5s-32.5 18.5 -45.5 31.5s-23.5 28.833 -31.5 47.5s-11.667 41 -11 67v197c-0.666992 26 3 48.333 11 67
s18.5 34.5 31.5 47.5s28.167 23.333 45.5 31s35 13.667 53 18s35.667 7.16602 53 8.49902s32.666 2 45.999 2l52 1c24.667 0 44 -1.5 58 -4.5s25.667 -6.83301 35 -11.5v-25h-118v0z" />
    <glyph glyph-name="d" unicode="d" 
d="M472 748l-0.000976562 -39.999h-33v-708h-198c-20.667 0 -45 1.83301 -73 5.5s-54.5 11.5 -79.5 23.5s-46.167 29.5 -63.5 52.5s-25.666 54.167 -24.999 93.5v197c-0.666992 26 3 48.333 11 67s18.667 34.5 32 47.5s28.5 23.333 45.5 31s34.5 13.667 52.5 18
s35.667 7.16602 53 8.49902s33 2 47 2h109v202h122zM349.999 506.001h-83c-16 0 -34.333 -1.33301 -55 -4s-40.334 -8.83398 -59.001 -18.501s-34.167 -23.667 -46.5 -42s-18.166 -42.833 -17.499 -73.5v-190c-0.666992 -30.667 5.16602 -55.167 17.499 -73.5
s27.833 -32.166 46.5 -41.499s38.334 -15.5 59.001 -18.5s39 -4.5 55 -4.5h83v466z" />
    <glyph glyph-name="e" unicode="e" horiz-adv-x="486" 
d="M438 372c0 -24.667 -9.50098 -48.498 -28.501 -71.498s-53.833 -44.5 -104.5 -64.5l-67 -25.5l-63.5 -22.5l-52.5 -17.5c-15.333 -5 -26.333 -8.5 -33 -10.5c2 -26.667 9.5 -48 22.5 -64s28.5 -28.167 46.5 -36.5s36.833 -13.666 56.5 -15.999s37.167 -3.5 52.5 -3.5h25
c24.667 0 44 -1.33301 58 -4s25.667 -6.33398 35 -11.001v-25h-144c-14 0 -29.667 0.666992 -47 2s-35 4.16602 -53 8.49902s-35.667 10.5 -53 18.5s-32.5 18.5 -45.5 31.5s-23.5 28.833 -31.5 47.5s-11.667 41 -11 67v209c0 27.333 6.33301 51.166 19 71.499
s29.334 37.166 50.001 50.499s44.167 23.333 70.5 30s53.5 10 81.5 10s55 -4 81 -12s49.167 -19.5 69.5 -34.5s36.5 -33.167 48.5 -54.5s18 -45.666 18 -72.999zM88.999 210.002l37.5 13.5l49 17.5l50.5 18l43 16c18 6.66699 32.5 14.167 43.5 22.5s19.167 16.5 24.5 24.5
s8.83301 16 10.5 24s2.5 15.333 2.5 22c0 38 -11 69.833 -33 95.5s-53.667 38.5 -95 38.5c-20.667 0 -39.167 -3.5 -55.5 -10.5s-30.333 -16.5 -42 -28.5s-20.5 -26.167 -26.5 -42.5s-9 -33.833 -9 -52.5v-158z" />
    <glyph glyph-name="f" unicode="f" horiz-adv-x="337" 
d="M290 709c-16 0 -34.3311 -1.50098 -54.998 -4.50098s-40.334 -9.16699 -59.001 -18.5s-34.167 -23.166 -46.5 -41.499s-18.166 -42.833 -17.499 -73.5v-215h154v-25c-9.33301 -4.66699 -21 -8.5 -35 -11.5s-33.333 -4.5 -58 -4.5h-61v-426h-86v427h-26v40h26v218
c-0.666992 38.667 7.16602 69.667 23.499 93s36.666 41 60.999 53s50 19.833 77 23.5s50.5 5.5 70.5 5.5h17c5.33301 0 10.333 -0.333008 15 -1v-39v0z" />
    <glyph glyph-name="g" unicode="g" 
d="M472 546v-39.999h-34v-565c0.666992 -39.333 -7.5 -70.5 -24.5 -93.5s-38.167 -40.5 -63.5 -52.5s-52 -19.667 -80 -23s-52 -5 -72 -5v-1c-24.667 0 -44 1.5 -58 4.5s-25.667 6.83301 -35 11.5v25h66c16 0 34.5 1.33301 55.5 4s40.833 8.83398 59.5 18.501
s34 23.5 46 41.5s17.667 42.667 17 74v55h-109c-13.333 0 -28.666 0.666992 -45.999 2s-35 4.16602 -53 8.49902s-35.667 10.5 -53 18.5s-32.5 18.5 -45.5 31.5s-23.5 28.833 -31.5 47.5s-11.667 41 -11 67v197c-0.666992 26 3 48.333 11 67s18.5 34.5 31.5 47.5
s28.167 23.333 45.5 31s35 13.667 53 18s35.667 7.16602 53 8.49902s32.666 2 45.999 2h232zM349 506.001h-82c-16 0 -34.5 -1.33301 -55.5 -4s-40.833 -8.83398 -59.5 -18.501s-34.167 -23.667 -46.5 -42s-17.833 -42.833 -16.5 -73.5v-190
c-1.33301 -30.667 4.16699 -55.167 16.5 -73.5s27.833 -32.166 46.5 -41.499s38.5 -15.5 59.5 -18.5s39.5 -4.5 55.5 -4.5h82v466z" />
    <glyph glyph-name="h" unicode="h" 
d="M231 546c20 0 44.002 -1.83398 72.002 -5.50098s54.667 -11.5 80 -23.5s46.666 -29.5 63.999 -52.5s25.666 -53.833 24.999 -92.5v-372h-89v368c0.666992 30.667 -5.16602 55.167 -17.499 73.5s-27.833 32.333 -46.5 42s-38.334 15.834 -59.001 18.501s-39 4 -55 4h-83
v-506h-122v40h33v708h89v-202h109v0z" />
    <glyph glyph-name="i" unicode="i" horiz-adv-x="215" 
d="M66 622c-14 0 -25.833 4.83301 -35.5 14.5s-14.5 21.5 -14.5 35.5c0 13.333 4.83301 25 14.5 35s21.5 15 35.5 15s25.833 -5 35.5 -15s14.5 -21.667 14.5 -35c0 -14 -4.83301 -25.833 -14.5 -35.5s-21.5 -14.5 -35.5 -14.5zM143 546v-40h-33v-506h-89v546h122z" />
    <glyph glyph-name="j" unicode="j" horiz-adv-x="258" 
d="M111 622c-14 0 -25.833 4.83301 -35.5 14.5s-14.5 21.5 -14.5 35.5c0 13.333 4.83301 25 14.5 35s21.5 15 35.5 15s25.833 -5 35.5 -15s14.5 -21.667 14.5 -35c0 -14 -4.83301 -25.833 -14.5 -35.5s-21.5 -14.5 -35.5 -14.5zM188 546v-40h-33v-565
c0.666992 -39.333 -7.5 -70.5 -24.5 -93.5s-38.167 -40.5 -63.5 -52.5s-52 -19.667 -80 -23s-52.333 -5 -73 -5v40c16.667 0.666992 34 3.16699 52 7.5s34.5 11.5 49.5 21.5s27.333 23.833 37 41.5s14.167 40.167 13.5 67.5v601h122z" />
    <glyph glyph-name="k" unicode="k" 
d="M398 228c23.333 -11.333 41.3311 -27.6641 53.998 -48.9971s19.334 -47 20.001 -77v-102h-86v147c-0.666992 11.333 -4.66699 22.166 -12 32.499s-17.666 16.166 -30.999 17.499c-32 -13.333 -67.167 -22.333 -105.5 -27s-76.833 -5.66699 -115.5 -3v-167h-122v40h33v708
h89v-232c38.667 20 83 30 133 30c28 0 55 -3.83301 81 -11.5s49 -19 69 -34s36.167 -33.333 48.5 -55s18.5 -46.167 18.5 -73.5c0 -32 -6.66699 -59.833 -20 -83.5s-31.333 -43.834 -54 -60.501zM127.998 205.002c33.333 -1.33301 65.334 0.833984 96.001 6.50098
s57.834 15.167 81.501 28.5s42.5 30.666 56.5 51.999s21 47 21 77c0 18.667 -2.83301 36.167 -8.5 52.5s-14 30.5 -25 42.5s-24.333 21.5 -40 28.5s-33.834 10.5 -54.501 10.5c-20 0 -38 -3.5 -54 -10.5s-29.333 -16.5 -40 -28.5s-18.834 -26.167 -24.501 -42.5
s-8.5 -33.833 -8.5 -52.5v-164z" />
    <glyph glyph-name="l" unicode="l" horiz-adv-x="192" 
d="M122 748v-748h-89v708h-33v40h122z" />
    <glyph glyph-name="m" unicode="m" horiz-adv-x="895" 
d="M608 559c28 0 55.0088 -4.00098 81.0088 -12.001s49 -19.5 69 -34.5s36.167 -33.167 48.5 -54.5s18.5 -45.666 18.5 -72.999v-385h-89v382c0 18.667 -2.83301 36.167 -8.5 52.5s-14 30.5 -25 42.5s-24.333 21.333 -40 28s-33.834 10 -54.501 10
s-38.834 -3.33301 -54.501 -10s-28.834 -16 -39.501 -28s-18.834 -26.167 -24.501 -42.5s-8.5 -33.833 -8.5 -52.5v-382h-89v382c0 18.667 -2.83301 36.167 -8.5 52.5s-14 30.5 -25 42.5s-24.333 21.333 -40 28s-33.834 10 -54.501 10s-38.834 -3.33301 -54.501 -10
s-28.834 -16 -39.501 -28s-18.834 -26.167 -24.501 -42.5s-8.5 -33.833 -8.5 -52.5v-382h-89v385v118h-48l-1 43h138v-19c18 10.667 37.833 18.667 59.5 24s44.167 8 67.5 8c34 0 66 -5.5 96 -16.5s55.333 -27.167 76 -48.5c20.667 21.333 46.167 37.5 76.5 48.5
s62.166 16.5 95.499 16.5z" />
    <glyph glyph-name="n" unicode="n" horiz-adv-x="551" 
d="M264 559c28 0 55 -4.00098 81 -12.001s49.167 -19.5 69.5 -34.5s36.5 -33.167 48.5 -54.5s18 -45.666 18 -72.999v-385h-89v382c0 18.667 -2.83301 36.167 -8.5 52.5s-14 30.5 -25 42.5s-24.333 21.333 -40 28s-33.834 10 -54.501 10c-20 0 -38 -3.33301 -54 -10
s-29.333 -16 -40 -28s-18.834 -26.167 -24.501 -42.5s-8.5 -33.833 -8.5 -52.5v-382h-89v385v118h-48v43h137v-19c18.667 10.667 38.834 18.667 60.501 24s43.834 8 66.501 8z" />
    <glyph glyph-name="o" unicode="o" horiz-adv-x="504" 
d="M217 559c28 0 55 -4 81 -12s49 -19.5 69 -34.5s36.167 -33.167 48.5 -54.5s18.5 -45.666 18.5 -72.999v-223c0 -27.333 -6.16699 -51.833 -18.5 -73.5s-28.5 -40 -48.5 -55s-43 -26.333 -69 -34s-53 -11.5 -81 -11.5s-55 3.83301 -81 11.5s-49 19 -69 34
s-36 33.333 -48 55s-18 46.167 -18 73.5v223c0 27.333 6 51.666 18 72.999s28 39.5 48 54.5s43 26.5 69 34.5s53 12 81 12zM345 382c0 18.667 -2.83105 36.167 -8.49805 52.5s-14 30.5 -25 42.5s-24.333 21.333 -40 28s-33.834 10 -54.501 10c-20 0 -38 -3.33301 -54 -10
s-29.333 -16 -40 -28s-18.834 -26.167 -24.501 -42.5s-8.5 -33.833 -8.5 -52.5v-217c0 -38 11 -69.833 33 -95.5s53.333 -38.5 94 -38.5c41.333 0 73 12.833 95 38.5s33 57.5 33 95.5v217z" />
    <glyph glyph-name="p" unicode="p" horiz-adv-x="543" 
d="M232 547c20.667 0 45 -1.83301 73 -5.5s54.667 -11.5 80 -23.5s46.5 -29.667 63.5 -53s25.167 -54.333 24.5 -93v-197c0.666992 -39.333 -7.5 -70.5 -24.5 -93.5s-38.167 -40.5 -63.5 -52.5s-52 -19.833 -80 -23.5s-52.333 -5.5 -73 -5.5h-109v-233h-89v740h-33v40h231z
M384 369c0.666992 30.667 -5.16602 55.1699 -17.499 73.5029s-27.833 32.166 -46.5 41.499s-38.334 15.5 -59.001 18.5s-39 4.5 -55 4.5h-83v-467h83c16 0 34.333 1.5 55 4.5s40.334 9.16699 59.001 18.5s34.167 23.166 46.5 41.499s18.166 43.166 17.499 74.499v190z" />
    <glyph glyph-name="q" unicode="q" 
d="M472 547v-39.998h-34v-740h-88v233h-109c-14 0 -29.667 0.666992 -47 2s-35 4.16602 -53 8.49902s-35.667 10.5 -53 18.5s-32.5 18.5 -45.5 31.5s-23.5 28.833 -31.5 47.5s-11.667 41 -11 67v197c-0.666992 26 3 48.333 11 67s18.5 34.5 31.5 47.5s28.167 23.5 45.5 31.5
s35 14.167 53 18.5s35.667 7.16602 53 8.49902s33 2 47 2h231zM350 507.002l-83 -0.00292969c-16 0 -34.333 -1.5 -55 -4.5s-40.334 -9.16699 -59.001 -18.5s-34.167 -23.166 -46.5 -41.499s-18.166 -42.833 -17.499 -73.5v-190
c-0.666992 -31.333 5.16602 -56.166 17.499 -74.499s27.833 -32.166 46.5 -41.499s38.334 -15.5 59.001 -18.5s39 -4.5 55 -4.5h83v467z" />
    <glyph glyph-name="r" unicode="r" horiz-adv-x="324" 
d="M128 519c24.667 11.333 50.3301 18.667 76.9971 22s49.667 5 69 5v-41c-16 -1.33301 -32.667 -4.33301 -50 -9s-33.166 -12 -47.499 -22s-26.166 -23.667 -35.499 -41s-13.666 -39 -12.999 -65v-368h-88l-1 503h-48v43h137v-27v0z" />
    <glyph glyph-name="s" unicode="s" horiz-adv-x="490" 
d="M201 503c-41.333 0 -72.3389 -8.49805 -93.0059 -25.498s-29.667 -40.167 -27 -69.5c1.33301 -15.333 7.33301 -28.5 18 -39.5s29 -20.167 55 -27.5l92 -25.5l75 -20.5c12 -3.33301 25 -7.66602 39 -12.999s26.833 -12.833 38.5 -22.5s21.5 -22 29.5 -37
s12 -33.5 12 -55.5c0 -27.333 -4.33301 -51.333 -13 -72s-20.667 -38 -36 -52s-33.166 -24.667 -53.499 -32s-42.166 -11 -65.499 -11h-285v28c9.33301 4.66699 21 8.5 35 11.5s33.333 4.5 58 4.5h147c22 0 40.833 3 56.5 9s28.334 14.167 38.001 24.5
s16.334 22.666 20.001 36.999s4.83398 29.833 3.50098 46.5c-2 24 -11.833 42.167 -29.5 54.5s-38.5 22.166 -62.5 29.499c-5.33301 2 -16.666 5.33301 -33.999 10l-55 14.5l-54 13.5c-16.667 4 -27 6.66699 -31 8c-9.33301 2.66699 -19.5 6.33398 -30.5 11.001
s-21 11.5 -30 20.5s-16.5 20.167 -22.5 33.5s-9 29.666 -9 48.999c0 27.333 5.5 50.166 16.5 68.499s25.667 33 44 44s39.833 18.667 64.5 23s51 6.5 79 6.5h185v-28c-9.33301 -4.66699 -21 -8.5 -35 -11.5s-33.333 -4.5 -58 -4.5h-82z" />
    <glyph glyph-name="t" unicode="t" horiz-adv-x="338" 
d="M122 178c-0.666992 -26 3.5 -47.499 12.5 -64.499s20.5 -30.667 34.5 -41s29.667 -17.833 47 -22.5s34 -7.66699 50 -9v-41c-13.333 0 -28.5 0.666992 -45.5 2s-34.333 4.16602 -52 8.49902s-34.667 10.5 -51 18.5s-30.833 18.5 -43.5 31.5s-22.667 28.833 -30 47.5
s-10.666 41 -9.99902 67v84v112v1v134h-34v40h34v138h88v-138h146v-41c-15.333 -1.33301 -31.5 -4.33301 -48.5 -9s-32.5 -11.667 -46.5 -21s-25.833 -21.833 -35.5 -37.5s-14.834 -35.5 -15.501 -59.5v-200z" />
    <glyph glyph-name="u" unicode="u" horiz-adv-x="537" 
d="M467 546l-0.00390625 -385c0 -27.333 -6.16699 -51.666 -18.5 -72.999s-28.5 -39.5 -48.5 -54.5s-43 -26.5 -69 -34.5s-53 -12 -81 -12s-55 4 -81 12s-49 19.5 -69 34.5s-36 33.167 -48 54.5s-18 45.666 -18 72.999v345h-34v40h123v-382
c0 -18.667 2.83301 -36.167 8.5 -52.5s13.834 -30.5 24.501 -42.5s23.834 -21.333 39.501 -28s33.834 -10 54.501 -10s38.834 3.33301 54.501 10s29 16 40 28s19.333 26.167 25 42.5s8.5 33.833 8.5 52.5v382h89z" />
    <glyph glyph-name="v" unicode="v" horiz-adv-x="460" 
d="M411 546l-172 -546h-139v40h32l-153 506h88l128 -445l128 445h88z" />
    <glyph glyph-name="w" unicode="w" horiz-adv-x="762" 
d="M739 546l-172 -546h-95l-110 364l-115 -364h-95l-154 506h-26v40h103l128 -458l127 458h89l-13 -39l117 -419l128 458h88z" />
    <glyph glyph-name="x" unicode="x" horiz-adv-x="503" 
d="M466 40l0.00195312 -40h-122v145c0 18.667 -2.83301 36.167 -8.5 52.5s-14 30.5 -25 42.5s-24.333 21.5 -40 28.5s-33.834 10.5 -54.501 10.5s-38.834 -3.5 -54.501 -10.5s-29 -16.5 -40 -28.5s-19.333 -26.167 -25 -42.5s-8.5 -33.833 -8.5 -52.5v-145h-88v148
c0 36 10.167 67 30.5 93s46.5 45.667 78.5 59c-32 14 -58.167 33.833 -78.5 59.5s-30.5 56.834 -30.5 93.501v93h88v-90c0 -38 11 -69.833 33 -95.5s53.667 -38.5 95 -38.5s73 12.833 95 38.5s33 57.5 33 95.5v90h88v-93c0 -36.667 -10 -67.834 -30 -93.501
s-46 -45.5 -78 -59.5c32 -13.333 58 -33 78 -59s30 -57 30 -93v-108h34z" />
    <glyph glyph-name="y" unicode="y" horiz-adv-x="537" 
d="M467 546l-0.00585938 -604.996c0.666992 -39.333 -7.66602 -70.5 -24.999 -93.5s-38.5 -40.5 -63.5 -52.5s-51.5 -19.833 -79.5 -23.5s-52.333 -5.5 -73 -5.5c-24.667 0 -44 1.5 -58 4.5s-25.667 6.83301 -35 11.5v24h69c16 0 34.5 1.5 55.5 4.5
s40.833 9.16699 59.5 18.5s34.167 23.166 46.5 41.499s18.166 43.166 17.499 74.499v75c-19.333 -10.667 -40.166 -18.834 -62.499 -24.501s-45.166 -8.5 -68.499 -8.5c-28 0 -55 4 -81 12s-49 19.5 -69 34.5s-36 33.167 -48 54.5s-18 45.666 -18 72.999v345h-34v40h123
v-382c0 -18.667 2.83301 -36.167 8.5 -52.5s13.834 -30.5 24.501 -42.5s23.834 -21.333 39.501 -28s33.834 -10 54.501 -10s38.834 3.33301 54.501 10s29 16 40 28s19.333 26.167 25 42.5s8.5 33.833 8.5 52.5v382h89z" />
    <glyph glyph-name="z" unicode="z" horiz-adv-x="479" 
d="M409 441l-323 -397.999h230c24.667 0 44 -1.33301 58 -4s25.667 -6.33398 35 -11.001v-28h-409v106l331 399v1h-297v-40h-34v80h409v-105z" />
    <glyph glyph-name="agrave" unicode="&#xe0;" horiz-adv-x="528" 
d="M458 40l-0.00195312 -40.001h-231c-20 0 -44 1.66699 -72 5s-54.667 11 -80 23s-46.666 29.5 -63.999 52.5s-25.666 54.167 -24.999 93.5c0.666992 40.667 11.5 73.667 32.5 99s48 45 81 59s70.167 22.833 111.5 26.5s83 4.16699 125 1.5v93c0 11.333 -4 22.333 -12 33
s-18.667 16.334 -32 17.001h-206v25c9.33301 4.66699 21 9.16699 35 13.5s33.333 6.5 58 6.5h106c42.667 -0.666992 76.5 -13.5 101.5 -38.5s37.833 -58.833 38.5 -101.5v-368h33zM335.998 321.999c-34 1.33301 -66.499 0.333984 -97.499 -2.99902s-58.5 -10.333 -82.5 -21
s-43.333 -25.667 -58 -45s-22.334 -44.333 -23.001 -75c-0.666992 -31.333 5.16602 -56 17.499 -74s27.833 -31.833 46.5 -41.5s38.334 -15.834 59.001 -18.501s39 -4 55 -4h83v282zM304.999 604c-13.333 0 -27.666 1.33105 -42.999 3.99805s-30.333 6.83398 -45 12.501
s-28 12.334 -40 20.001s-21.667 16.5 -29 26.5v43c23.333 -20 48.666 -33.833 75.999 -41.5s54.333 -11.5 81 -11.5v-53z" />
    <glyph glyph-name="aacute" unicode="&#xe1;" horiz-adv-x="529" 
 />
    <glyph glyph-name="acircumflex" unicode="&#xe2;" horiz-adv-x="528" 
d="M458 40l-0.000976562 -40h-232c-13.333 0 -28.666 0.666992 -45.999 2s-35 4.16602 -53 8.49902s-35.667 10.5 -53 18.5s-32.5 18.5 -45.5 31.5s-23.5 28.833 -31.5 47.5s-11.667 41 -11 67c0.666992 40.667 11.5 73.667 32.5 99s47.833 45 80.5 59
s69.667 22.833 111 26.5s83 4.16699 125 1.5v93c0 11.333 -3.83301 22.333 -11.5 33s-18.167 16.334 -31.5 17.001h-207v25c9.33301 4.66699 21 9.16699 35 13.5s33.333 6.5 58 6.5h107c42 -0.666992 75.5 -13.667 100.5 -39s37.833 -59 38.5 -101v-369h34zM334.999 322
c-34 2 -66.499 1.33301 -97.499 -2s-58.5 -10.333 -82.5 -21s-43.167 -25.667 -57.5 -45s-21.833 -44.333 -22.5 -75c-0.666992 -20.667 1.83301 -38.5 7.5 -53.5s13.167 -27.667 22.5 -38s20.333 -18.5 33 -24.5s25.667 -10.833 39 -14.5s26.666 -6 39.999 -7
s25.333 -1.5 36 -1.5h82v282zM219 660c-10.667 -13.333 -24 -23.998 -40 -31.998s-33 -13.667 -51 -17v58c33.333 8 63.666 22 90.999 42c14 -10.667 28.833 -19.334 44.5 -26.001s31.834 -12.334 48.501 -17.001v-57c-18 3.33301 -35 9 -51 17s-29.333 18.667 -40 32h-2z
" />
    <glyph glyph-name="ccedilla" unicode="&#xe7;" horiz-adv-x="455" 
d="M267 507c-16 0 -34.5029 -1.49609 -55.5029 -4.49609s-40.667 -9.16699 -59 -18.5s-33.666 -23.166 -45.999 -41.499s-18.166 -42.833 -17.499 -73.5v-190c-0.666992 -31.333 5.16602 -56 17.499 -74s27.666 -31.833 45.999 -41.5s38 -15.834 59 -18.501s39.5 -4 55.5 -4
h118v-25c-9.33301 -4.66699 -21 -8.5 -35 -11.5s-33.333 -4.5 -58 -4.5h-28c-4.66699 -26.667 -12 -48 -22 -64s-22 -28.333 -36 -37s-29.333 -14.5 -46 -17.5s-34 -4.5 -52 -4.5v40c26.667 1.33301 46.334 8.16602 59.001 20.499s22 34.166 28 65.499
c-21.333 2 -43.666 5.83301 -66.999 11.5s-44.5 15 -63.5 28s-34.667 30.167 -47 51.5s-18.166 48.333 -17.499 81v197c-0.666992 26 3 48.333 11 67s18.5 34.5 31.5 47.5s28.167 23.5 45.5 31.5s35 14.167 53 18.5s35.667 7.16602 53 8.49902s33 2 47 2h51
c24.667 0 44 -1.33301 58 -4s25.667 -6.33398 35 -11.001v-25h-118v0z" />
    <glyph glyph-name="egrave" unicode="&#xe8;" horiz-adv-x="486" 
d="M438 371c0 -24.667 -9.50293 -48.3301 -28.5029 -70.9971s-54.167 -44.334 -105.5 -65.001l-66.5 -25l-63.5 -22l-52.5 -17.5c-15 -5 -25.833 -8.5 -32.5 -10.5c2 -26.667 9.5 -48 22.5 -64s28.333 -28.167 46 -36.5s36.334 -13.666 56.001 -15.999
s37.167 -3.5 52.5 -3.5h26c24 0 43 -1.5 57 -4.5s25.667 -6.83301 35 -11.5v-24h-144c-13.333 0 -28.666 0.666992 -45.999 2s-35 4.16602 -53 8.49902s-35.667 10.333 -53 18s-32.5 18 -45.5 31s-23.5 28.833 -31.5 47.5s-11.667 41 -11 67v209
c0 27.333 6.33301 51.166 19 71.499s29.334 37.166 50.001 50.499s44.167 23.333 70.5 30s53.5 10 81.5 10s55 -3.83301 81 -11.5s49 -19 69 -34s36.167 -33.333 48.5 -55s18.5 -46.167 18.5 -73.5zM87.9971 210.004l38.501 13.5l49 17.5l50.5 18
c16.667 6 30.667 11.333 42 16c18 6.66699 32.5 14.167 43.5 22.5s19.167 16.5 24.5 24.5s8.83301 16 10.5 24s2.5 15.333 2.5 22c0 18.667 -2.83301 36.167 -8.5 52.5s-13.834 30.5 -24.501 42.5s-24 21.5 -40 28.5s-34 10.5 -54 10.5c-20.667 0 -39.167 -3.5 -55.5 -10.5
s-30.333 -16.5 -42 -28.5s-20.667 -26.167 -27 -42.5s-9.5 -33.833 -9.5 -52.5v-158zM299.998 604.004c-13.333 0 -27.667 1.33105 -43 3.99805s-30.333 6.83398 -45 12.501s-28 12.334 -40 20.001s-21.667 16.5 -29 26.5v43c23.333 -20 48.833 -33.833 76.5 -41.5
s54.5 -11.5 80.5 -11.5v-53z" />
    <glyph glyph-name="eacute" unicode="&#xe9;" horiz-adv-x="486" 
d="M438 371c0 27.333 -6.16602 51.8291 -18.499 73.4961s-28.5 40 -48.5 55s-43 26.333 -69 34s-53 11.5 -81 11.5s-55.167 -3.33301 -81.5 -10s-49.833 -16.667 -70.5 -30s-37.334 -30.166 -50.001 -50.499s-19 -44.166 -19 -71.499v-209c-0.666992 -26 3 -48.333 11 -67
s18.5 -34.5 31.5 -47.5s28.167 -23.333 45.5 -31s35 -13.667 53 -18s35.667 -7.16602 53 -8.49902s32.666 -2 45.999 -2h145v24c-9.33301 4.66699 -21.166 8.5 -35.499 11.5s-33.5 4.5 -57.5 4.5h-25c-15.333 0 -32.833 1.16699 -52.5 3.5s-38.5 7.66602 -56.5 15.999
s-33.5 20.5 -46.5 36.5s-20.5 37.333 -22.5 64c6.66699 2 17.5 5.5 32.5 10.5l52.5 17.5l63.5 22l66.5 25c51.333 20.667 86.5 42.334 105.5 65.001s28.5 46.334 28.5 71.001zM88.001 209.996v158c0 18.667 3.16699 36.167 9.5 52.5s15.333 30.5 27 42.5
s25.667 21.5 42 28.5s34.833 10.5 55.5 10.5c20 0 38 -3.5 54 -10.5s29.333 -16.5 40 -28.5s18.834 -26.167 24.501 -42.5s8.5 -33.833 8.5 -52.5c0 -6.66699 -0.833008 -14 -2.5 -22s-5.16699 -16 -10.5 -24s-13.333 -16.167 -24 -24.5s-25.334 -15.833 -44.001 -22.5
c-11.333 -4.66699 -25.333 -10 -42 -16l-50.5 -18l-49 -17.5zM135.001 656.996c26 0 52.832 3.83496 80.499 11.502s53.167 21.5 76.5 41.5v-43c-7.33301 -10 -17 -18.833 -29 -26.5s-25.333 -14.334 -40 -20.001s-29.667 -9.83398 -45 -12.501s-29.666 -4 -42.999 -4v53z
" />
    <glyph glyph-name="edieresis" unicode="&#xeb;" horiz-adv-x="486" 
d="M177 604h-53v80h53v-80zM307 604h-54v80h54v-80zM438 371c0 -24.667 -9.50293 -48.3301 -28.5029 -70.9971s-54.167 -44.334 -105.5 -65.001l-66.5 -25l-63.5 -22l-52.5 -17.5c-15 -5 -25.833 -8.5 -32.5 -10.5c2 -26.667 9.5 -48 22.5 -64s28.333 -28.167 46 -36.5
s36.334 -13.666 56.001 -15.999s37.167 -3.5 52.5 -3.5h26c24 0 43 -1.5 57 -4.5s25.667 -6.83301 35 -11.5v-24h-144c-13.333 0 -28.666 0.666992 -45.999 2s-35 4.16602 -53 8.49902s-35.667 10.333 -53 18s-32.5 18 -45.5 31s-23.5 28.833 -31.5 47.5s-11.667 41 -11 67
v209c0 27.333 6.33301 51.166 19 71.499s29.334 37.166 50.001 50.499s44.167 23.333 70.5 30s53.5 10 81.5 10s55 -3.83301 81 -11.5s49 -19 69 -34s36.167 -33.333 48.5 -55s18.5 -46.167 18.5 -73.5zM87.9971 210.004l38.501 13.5l49 17.5l50.5 18
c16.667 6 30.667 11.333 42 16c18 6.66699 32.5 14.167 43.5 22.5s19.167 16.5 24.5 24.5s8.83301 16 10.5 24s2.5 15.333 2.5 22c0 18.667 -2.83301 36.167 -8.5 52.5s-13.834 30.5 -24.501 42.5s-24 21.5 -40 28.5s-34 10.5 -54 10.5c-20.667 0 -39.167 -3.5 -55.5 -10.5
s-30.333 -16.5 -42 -28.5s-20.667 -26.167 -27 -42.5s-9.5 -33.833 -9.5 -52.5v-158z" />
    <glyph glyph-name="icircumflex" unicode="&#xee;" horiz-adv-x="210" 
d="M140 546v-40h-34v-506h-89v546h123zM62 659c-10.667 -13.333 -24 -23.998 -40 -31.998s-33 -13.667 -51 -17v58c33.333 8 63.666 22 90.999 42c14 -10.667 28.833 -19.334 44.5 -26.001s31.834 -12.334 48.501 -17.001v-57c-18 3.33301 -35 9 -51 17
s-29.333 18.667 -40 32h-2z" />
    <glyph glyph-name="idieresis" unicode="&#xef;" horiz-adv-x="202" 
d="M122 546v-40h-34v-506h-88v546h122zM6 604h-53v80h53v-80zM136 604h-54v80h54v-80z" />
    <glyph glyph-name="ocircumflex" unicode="&#xf4;" horiz-adv-x="504" 
d="M215 559c28 0 55 -4 81 -12s49 -19.5 69 -34.5s36.167 -33.167 48.5 -54.5s18.5 -45.666 18.5 -72.999v-224c0 -27.333 -6.16699 -51.666 -18.5 -72.999s-28.5 -39.5 -48.5 -54.5s-43 -26.5 -69 -34.5s-53 -12 -81 -12s-55 4 -81 12s-49 19.5 -69 34.5
s-36 33.167 -48 54.5s-18 45.666 -18 72.999v224c0 27.333 6 51.666 18 72.999s28 39.5 48 54.5s43 26.5 69 34.5s53 12 81 12zM343 381c0 38 -11 69.833 -33 95.5s-53.667 38.5 -95 38.5c-40.667 0 -72 -12.833 -94 -38.5s-33 -57.5 -33 -95.5v-216
c0 -38 11 -69.833 33 -95.5s53.333 -38.5 94 -38.5c41.333 0 73 12.833 95 38.5s33 57.5 33 95.5v216zM213 660c-10.667 -13.333 -24.001 -23.999 -40.001 -31.999s-33 -13.667 -51 -17v58c16 4 31.667 9.33301 47 16s30 15.334 44 26.001
c14 -10.667 28.833 -19.5 44.5 -26.5s31.834 -12.5 48.501 -16.5v-58c-18 3.33301 -35 9.16602 -51 17.499s-29.333 19.166 -40 32.499h-2z" />
    <glyph glyph-name="odieresis" unicode="&#xf6;" horiz-adv-x="503" 
d="M217 559c28 0 55 -4 81 -12s49 -19.5 69 -34.5s36 -33.167 48 -54.5s18 -45.666 18 -72.999v-224c0 -27.333 -6 -51.666 -18 -72.999s-28 -39.5 -48 -54.5s-43 -26.5 -69 -34.5s-53 -12 -81 -12s-55 4 -81 12s-49 19.5 -69 34.5s-36.167 33.167 -48.5 54.5
s-18.5 45.666 -18.5 72.999v224c0 27.333 6.16699 51.666 18.5 72.999s28.5 39.5 48.5 54.5s43 26.5 69 34.5s53 12 81 12zM344 381c0 38 -10.833 69.833 -32.5 95.5s-53.167 38.5 -94.5 38.5s-73 -12.833 -95 -38.5s-33 -57.5 -33 -95.5v-216c0 -38 11 -69.833 33 -95.5
s53.667 -38.5 95 -38.5s72.833 12.833 94.5 38.5s32.5 57.5 32.5 95.5v216zM179 604h-54v80h54v-80zM308 604h-53v80h53v-80z" />
    <glyph glyph-name="ugrave" unicode="&#xf9;" horiz-adv-x="536" 
d="M466 546v-385c0 -27.333 -6 -51.833 -18 -73.5s-28 -40 -48 -55s-43 -26.333 -69 -34s-53 -11.5 -81 -11.5s-55 3.83301 -81 11.5s-49 19 -69 34s-36.167 33.333 -48.5 55s-18.5 46.167 -18.5 73.5v345h-33v40h122v-382c0 -38 11 -69.833 33 -95.5s53.667 -38.5 95 -38.5
s72.833 12.833 94.5 38.5s32.5 57.5 32.5 95.5v382h89zM328 604c-13.333 0 -27.667 1.33105 -43 3.99805s-30.333 6.83398 -45 12.501s-28 12.334 -40 20.001s-21.667 16.5 -29 26.5v43c23.333 -20 48.833 -33.833 76.5 -41.5s54.5 -11.5 80.5 -11.5v-53z" />
    <glyph glyph-name="ucircumflex" unicode="&#xfb;" horiz-adv-x="536" 
d="M466 547v-385c0 -27.333 -6 -51.833 -18 -73.5s-28 -40 -48 -55s-43 -26.5 -69 -34.5s-53 -12 -81 -12s-55 4 -81 12s-49 19.5 -69 34.5s-36.167 33.333 -48.5 55s-18.5 46.167 -18.5 73.5v345h-33v40h122v-382c0 -38 11 -69.833 33 -95.5s53.667 -38.5 95 -38.5
s72.833 12.833 94.5 38.5s32.5 57.5 32.5 95.5v382h89zM250 660c-10.667 -13.333 -24.001 -24.001 -40.001 -32.001s-33 -13.667 -51 -17v58c16 4 31.667 9.33301 47 16s30 15.334 44 26.001c14 -10.667 28.833 -19.5 44.5 -26.5s31.834 -12.5 48.501 -16.5v-57
c-18 3.33301 -35 9 -51 17s-29.333 18.667 -40 32h-2z" />
    <glyph glyph-name="fi" unicode="&#xfb01;" horiz-adv-x="521" 
d="M451 546l-0.000976562 -39.999h-33v-506h-89v315h-217v-426h-86v426l-26 1v40h26v218c-1.33301 38.667 6.33398 69.667 23.001 93s37 41 61 53s49.5 19.833 76.5 23.5s50.833 5.5 71.5 5.5c6 0 11.667 -0.166992 17 -0.5s10.333 -0.5 15 -0.5v-39
c-16 0 -34.333 -1.5 -55 -4.5s-40.334 -9.16699 -59.001 -18.5s-34.167 -23.333 -46.5 -42s-18.166 -43.334 -17.499 -74.001v-214h217v190h122z" />
    <glyph glyph-name="fl" unicode="&#xfb02;" horiz-adv-x="532" 
d="M462 748l-0.00292969 -748.001h-88v316h-262v-427h-86v427h-26v40h26v218c-1.33301 38.667 6.33398 69.667 23.001 93s37 41 61 53s49.5 19.833 76.5 23.5s50.833 5.5 71.5 5.5h17c5.33301 0 10.333 -0.333008 15 -1v-39c-16 0 -34.5 -1.5 -55.5 -4.5
s-40.667 -9.16699 -59 -18.5s-33.666 -23.166 -45.999 -41.499s-18.166 -42.833 -17.499 -73.5v-215h262v352h-34v40h122z" />
    <glyph glyph-name=".null" horiz-adv-x="0" 
 />
    <glyph glyph-name="nonmarkingreturn" horiz-adv-x="245" 
 />
  </font>
</defs>
</svg>
