<?xml version="1.0" standalone="no"?>
<!DOCTYPE svg PUBLIC "-//W3C//DTD SVG 1.1//EN" "http://www.w3.org/Graphics/SVG/1.1/DTD/svg11.dtd" >
<svg>
<metadata>
Created by FontForge 20090914 at Fri Apr 27 05:04:40 2012
 By www-data
Copyright (c) Beno&#194;&#148;t Sj&#194;&#153;holm, 2009. All rights reserved.
</metadata>
<defs>
<font id="Jalane_light" horiz-adv-x="130" >
  <font-face 
    font-family="Jalane_light"
    font-weight="300"
    font-stretch="normal"
    units-per-em="1000"
    panose-1="0 0 0 0 0 0 0 0 0 0"
    ascent="750"
    descent="-250"
    x-height="501"
    cap-height="719"
    bbox="-81 -190 797.999 774"
    underline-thickness="50"
    underline-position="-50"
    unicode-range="U+0020-U+FB02"
  />
<missing-glyph horiz-adv-x="241" 
 />
    <glyph glyph-name=".notdef" horiz-adv-x="241" 
 />
    <glyph glyph-name="space" unicode=" " horiz-adv-x="241" 
 />
    <glyph glyph-name="space" unicode="&#xa0;" horiz-adv-x="241" 
 />
    <glyph glyph-name="exclam" unicode="!" horiz-adv-x="118" 
d="M0 217v502h18v-502h-18zM0 98h18v-98h-18v98z" />
    <glyph glyph-name="quotedbl" unicode="&#x22;" horiz-adv-x="203" 
d="M30 719l-8 -253h-14l-8 253h30zM103 719l-8 -253h-13l-8 253h29z" />
    <glyph glyph-name="dollar" unicode="$" horiz-adv-x="509" 
d="M247 401c31.333 -1.33301 57.332 -6.66992 77.999 -16.0029s37.334 -21.666 50.001 -36.999s21.5 -32.833 26.5 -52.5s7.5 -40.5 7.5 -62.5v-64c0 -22 -2.5 -42.833 -7.5 -62.5s-13.833 -37.167 -26.5 -52.5s-29.334 -27.666 -50.001 -36.999
s-46.667 -14.666 -78 -15.999v-55h-19v55l-23 -1c-4.66699 0 -9 0.166992 -13 0.5s-8 0.833008 -12 1.5v-56h-19v58c-25.333 3.33301 -49.833 8.83301 -73.5 16.5s-44.5 16.167 -62.5 25.5v21c17.333 -9.33301 38 -18.5 62 -27.5s48.667 -15.167 74 -18.5v362
c-31.333 1.33301 -57.166 6.83301 -77.499 16.5s-36.833 22.167 -49.5 37.5s-21.5 32.833 -26.5 52.5s-7.5 40.167 -7.5 61.5s2.5 41.833 7.5 61.5s13.833 37.167 26.5 52.5s29.167 27.833 49.5 37.5s46.166 15.167 77.499 16.5v55h19v-55h25h12
c4 0 7.66699 -0.333008 11 -1v56h19v-58c25.333 -3.33301 50 -9 74 -17s45.333 -16.667 64 -26v-21c-17.333 9.33301 -38.166 18.5 -62.499 27.5s-49.5 15.167 -75.5 18.5v-297zM179.999 700.996v-300h48v299c-4 0.666992 -8 1 -12 1h-11h-25zM18.999 550.996
c0 -20 2.5 -38.6729 7.5 -56.0059s13 -32.666 24 -45.999s25.667 -24.166 44 -32.499s40.5 -13.166 66.5 -14.499v298c-26 -1.33301 -48.167 -6.16602 -66.5 -14.499s-33 -19.166 -44 -32.499s-19 -28.666 -24 -45.999s-7.5 -36 -7.5 -56zM227.999 18.9902v364h-48v-364h25
h23zM390.999 232.99c0 20 -2.5 38.6699 -7.5 56.0029s-13.167 32.833 -24.5 46.5s-26.166 24.667 -44.499 33s-40.833 13.166 -67.5 14.499v-364c26.667 1.33301 49.167 6.16602 67.5 14.499s33.166 19.166 44.499 32.499s19.5 28.833 24.5 46.5s7.5 36.5 7.5 56.5v64z" />
    <glyph glyph-name="quotesingle" unicode="'" 
d="M30 719l-0.000976562 -160c0 -42 -10.667 -73 -32 -93l-13 13c8.66699 8 15.334 18.5 20.001 31.5s7 29.167 7 48.5v21h-12v139h30z" />
    <glyph glyph-name="parenleft" unicode="(" horiz-adv-x="226" 
d="M19 -58c0 -19.333 2.33301 -35.5 7 -48.5s11 -23.167 19 -30.5c16 -16 40 -24 72 -24h9v-18h-9c-17.333 0 -33.166 2.16699 -47.499 6.5s-26.833 11.5 -37.5 21.5c-21.333 21.333 -32 52.333 -32 93v655c0 42 10.667 73 32 93c10.667 10 23.167 17.167 37.5 21.5
s30.166 6.5 47.499 6.5h9v-18h-9c-32 0 -56 -8 -72 -24c-8 -7.33301 -14.333 -17.5 -19 -30.5s-7 -29.167 -7 -48.5v-655z" />
    <glyph glyph-name="parenright" unicode=")" horiz-adv-x="225" 
d="M107 597c0 19.333 -2.33301 35.5 -7 48.5s-11 23.167 -19 30.5c-17.333 16 -41.333 24 -72 24h-9v18h9c17.333 0 33.166 -2.16699 47.499 -6.5s26.5 -11.5 36.5 -21.5c21.333 -20 32 -51 32 -93v-655c0 -40.667 -10.667 -71.667 -32 -93
c-10 -10 -22.167 -17.167 -36.5 -21.5s-30.166 -6.5 -47.499 -6.5h-9v18h9c30.667 0 54.667 8 72 24c8 7.33301 14.333 17.5 19 30.5s7 29.167 7 48.5v655z" />
    <glyph glyph-name="asterisk" unicode="*" horiz-adv-x="313" 
d="M213 627v-30h-71l50 -50l-21 -21l-50 50v-71h-30v71l-50 -50l-21 21l50 50h-70v30h70l-50 50l21 21l50 -50v71h30v-71l50 50l21 -21l-50 -50h71v0z" />
    <glyph glyph-name="plus" unicode="+" horiz-adv-x="513" 
d="M413 373h-413v29h413v-29zM191 181v413h30v-413h-30z" />
    <glyph glyph-name="comma" unicode="," 
d="M30 139v-160c0 -42 -10.667 -73 -32 -93l-12 13c8 8 14.333 18.5 19 31.5s7 29.167 7 48.5v21h-12v139h30z" />
    <glyph glyph-name="hyphen" unicode="-" horiz-adv-x="395" 
d="M0 259v30h295v-30h-295z" />
    <glyph glyph-name="period" unicode="." 
d="M30 0h-30v139h30v-139z" />
    <glyph glyph-name="slash" unicode="/" horiz-adv-x="345" 
d="M263 719h22l-263 -719h-22l263 719v0z" />
    <glyph glyph-name="zero" unicode="0" horiz-adv-x="527" 
d="M427 196c0 -46 -7.66699 -83 -23 -111s-34 -49.667 -56 -65c-22.667 -15.333 -46 -25.5 -70 -30.5s-45.333 -7.5 -64 -7.5s-40.167 2.5 -64.5 7.5s-47.5 15.167 -69.5 30.5c-22.667 15.333 -41.667 37 -57 65s-23 65 -23 111v309c0 45.333 7.66699 82.166 23 110.499
s34.333 50.166 57 65.499c22 15.333 45.167 25.5 69.5 30.5s45.833 7.5 64.5 7.5s40 -2.5 64 -7.5s47.333 -15.167 70 -30.5c22 -15.333 40.667 -37.166 56 -65.499s23 -65.166 23 -110.499v-309zM409 505c-0.666992 43.333 -7.83398 77.5 -21.501 102.5
s-30.5 44.5 -50.5 58.5c-20 13.333 -41.167 22.333 -63.5 27s-42.166 7 -59.499 7s-37.333 -2.33301 -60 -7s-44 -13.667 -64 -27c-20 -14 -36.833 -33.5 -50.5 -58.5s-20.5 -59.167 -20.5 -102.5v-309c0 -43.333 6.83301 -77.5 20.5 -102.5s30.5 -44.5 50.5 -58.5
s41.333 -23.333 64 -28s42.667 -7 60 -7s37.166 2.33301 59.499 7s43.5 14 63.5 28s36.833 33.5 50.5 58.5s20.834 59.167 21.501 102.5v309z" />
    <glyph glyph-name="one" unicode="1" horiz-adv-x="375" 
d="M242 18v-17.999h-165v18h74v625c-2 -3.33301 -4.16699 -6.33301 -6.5 -9s-4.83301 -5.33398 -7.5 -8.00098c-10.667 -10 -23 -17.167 -37 -21.5s-29.667 -6.5 -47 -6.5h-10v18h9c32.667 0 56.667 7.66699 72 23c17.333 16 26.333 42.333 27 79h18v-700h73z" />
    <glyph glyph-name="two" unicode="2" horiz-adv-x="526" 
d="M253 230l-28.999 -26.999l-39.5 -36.5l-44.5 -41l-45 -42l-41 -37.5l-31 -28h403v-19h-426v22l16 15l40.5 37.5l53.5 49.5l56 51.5l47.5 43.5c13.667 12.667 22.834 21 27.501 25l31.5 30c13 12 26.5 25.667 40.5 41c14.667 15.333 28.5 32.166 41.5 50.499
s24.167 37.5 33.5 57.5c13.333 28 20 55.667 20 83c0 42.667 -7 76.667 -21 102s-31 44.666 -51 57.999c-19.333 14 -40.333 23.333 -63 28s-42.667 7 -60 7s-37.333 -2.33301 -60 -7s-43.667 -14 -63 -28c-20 -13.333 -37 -32.666 -51 -57.999s-21 -59.333 -21 -102h-18
c-0.666992 45.333 6.66602 82.166 21.999 110.499s34.333 50.166 57 65.499s46 25.333 70 30s45.333 7 64 7s40 -2.33301 64 -7s47.333 -14.667 70 -30s41.667 -37.166 57 -65.499s22.666 -65.166 21.999 -110.499c0 -16 -1.83301 -31.5 -5.5 -46.5
s-8.83398 -29.5 -15.501 -43.5c-6.66699 -14.667 -14.167 -28.5 -22.5 -41.5s-17.166 -25.5 -26.499 -37.5c-19.333 -24 -38.5 -45.167 -57.5 -63.5s-34.167 -32.5 -45.5 -42.5z" />
    <glyph glyph-name="three" unicode="3" horiz-adv-x="527" 
d="M395 373c21.333 -20 32 -50.667 32 -92v-67c0 -45.333 -7.66699 -82.166 -23 -110.499s-34.333 -50.166 -57 -65.499c-22 -15.333 -45.167 -25.5 -69.5 -30.5s-45.833 -7.5 -64.5 -7.5s-40 2.5 -64 7.5s-47.333 15.167 -70 30.5c-22 15.333 -40.667 37.166 -56 65.499
s-23 65.166 -23 110.499h18c0 -43.333 7 -77.5 21 -102.5s31 -44.5 51 -58.5c19.333 -14 40.333 -23.333 63 -28s42.667 -7 60 -7s37.333 2.33301 60 7s44 14 64 28c19.333 14 36 33.5 50 58.5s21 59.167 21 102.5v67c0 19.333 -2.33301 35.333 -7 48s-11 23 -19 31
c-16 16 -40 24 -72 24h-152v18h152c31.333 0 55.333 7.66699 72 23c8 8 14.333 18.5 19 31.5s7 29.167 7 48.5c0 42.667 -7 76.667 -21 102s-30.667 44.666 -50 57.999c-20 14 -41.333 23.333 -64 28s-42.667 7 -60 7s-37.333 -2.33301 -60 -7s-43.667 -14 -63 -28
c-20 -13.333 -37 -32.666 -51 -57.999s-21 -59.333 -21 -102h-18c0 45.333 7.66699 82.166 23 110.499s34 50.166 56 65.499c22.667 15.333 46 25.333 70 30s45.333 7 64 7s40.167 -2.33301 64.5 -7s47.5 -14.667 69.5 -30c22.667 -15.333 41.667 -37.166 57 -65.499
s23 -65.166 23 -110.499c-1.33301 -42.667 -12 -73.667 -32 -93c-4.66699 -4 -9.5 -7.66699 -14.5 -11s-10.5 -6 -16.5 -8c12.667 -5.33301 23 -12 31 -20z" />
    <glyph glyph-name="four" unicode="4" horiz-adv-x="526" 
d="M426 718l-0.000976562 -718h-19v262l-50.5 -13.5c-21.667 -5.66699 -45.667 -11.167 -72 -16.5s-54.166 -10 -83.499 -14s-57.333 -6 -84 -6c-17.333 0 -33.166 2.16699 -47.499 6.5s-26.833 11.5 -37.5 21.5c-21.333 21.333 -32 52.333 -32 93v385h19v-385
c0 -19.333 2.33301 -35.5 7 -48.5s11 -23.167 19 -30.5c16 -16 40 -24 72 -24c26.667 0 54.667 2 84 6s57.166 8.66699 83.499 14s50.333 10.833 72 16.5l50.5 13.5v438h19z" />
    <glyph glyph-name="five" unicode="5" horiz-adv-x="508" 
d="M370 402c11.333 -9.33301 20.5 -20.6719 27.5 -34.0049s10.5 -29.333 10.5 -48v-106c0 -45.333 -7.66699 -82.166 -23 -110.499s-34 -50.166 -56 -65.499c-22.667 -15.333 -46.167 -25.5 -70.5 -30.5s-45.833 -7.5 -64.5 -7.5h-76c-14 0 -28 1.83301 -42 5.5
s-26.667 9.83398 -38 18.501s-20.5 19.834 -27.5 33.501s-10.5 29.834 -10.5 48.501h18c0 -16 2.83301 -29.333 8.5 -40s13.167 -19.667 22.5 -27s20 -12.666 32 -15.999s24.333 -5 37 -5h77c17.333 0 37.333 2.33301 60 7s43.667 14 63 28c20 14 37 33.5 51 58.5
s21 59.167 21 102.5v106c0 16 -2.83301 29.333 -8.5 40s-13.167 19.667 -22.5 27c-19.333 14 -42.333 21 -69 21h-290v189c0 42 10.667 73 32 93c10.667 10 23 17.167 37 21.5s29.667 6.5 47 6.5c26.667 0 54.667 -1.83301 84 -5.5s57.166 -8.16699 83.499 -13.5
s50.5 -10.833 72.5 -16.5l51 -13.5v-19l-51 13.5c-22 5.66699 -46.167 11.167 -72.5 16.5s-54.166 10 -83.499 14s-57.333 6 -84 6c-32 0 -56 -7.66699 -72 -23c-8 -8 -14.333 -18.5 -19 -31.5s-7 -29.167 -7 -48.5v-171h272c14 0 28 -1.83301 42 -5.5
s26.667 -9.83398 38 -18.501z" />
    <glyph glyph-name="six" unicode="6" horiz-adv-x="508" 
d="M370 439c11.333 -9.33301 20.5 -20.6709 27.5 -34.0039s10.5 -29.333 10.5 -48v-143c0 -45.333 -7.66699 -82.166 -23 -110.499s-34 -50.166 -56 -65.499c-22.667 -15.333 -46.167 -25.5 -70.5 -30.5s-45.833 -7.5 -64.5 -7.5h-76c-14 0 -28 1.83301 -42 5.5
s-26.667 9.83398 -38 18.501s-20.666 19.834 -27.999 33.501s-10.666 29.834 -9.99902 48.501v491c0 41.333 10.333 72.333 31 93c10.667 10 23.167 17.167 37.5 21.5s30.166 6.5 47.499 6.5c26.667 0 54.667 -1.83301 84 -5.5s57.166 -8.16699 83.499 -13.5
s50.5 -10.833 72.5 -16.5l51 -13.5v-19l-51 13.5c-22 5.66699 -46.167 11.167 -72.5 16.5s-54.166 10 -83.499 14s-57.333 6 -84 6c-32 0 -56 -7.66699 -72 -23c-8 -8 -14.333 -18.5 -19 -31.5s-7 -29.167 -7 -48.5v-247c7.33301 17.333 16.166 32 26.499 44
s21.833 22.333 34.5 31c22.667 15.333 46.167 25.5 70.5 30.5s45.5 7.5 63.5 7.5h77c14 0 28 -1.83301 42 -5.5s26.667 -9.83398 38 -18.501zM390 356.995c0 16 -2.83203 29.332 -8.49902 39.999s-13.167 19.667 -22.5 27c-19.333 14 -42.333 21 -69 21h-77
c-17.333 0 -37.333 -2.33301 -60 -7s-43.667 -14 -63 -28c-20 -14 -37 -33.5 -51 -58.5s-21 -59.167 -21 -102.5v-143c0 -16 2.83301 -29.333 8.5 -40s13.167 -19.667 22.5 -27s20 -12.666 32 -15.999s24.333 -5 37 -5h77c17.333 0 37.166 2.33301 59.499 7s43.5 14 63.5 28
s37 33.5 51 58.5s21 59.167 21 102.5v143z" />
    <glyph glyph-name="seven" unicode="7" horiz-adv-x="464" 
d="M384 700l-269 -700h-19l269 700h-365v18h384v-18z" />
    <glyph glyph-name="eight" unicode="8" horiz-adv-x="527" 
d="M388 411c11.333 -8.66699 20.666 -19.834 27.999 -33.501s11 -29.834 11 -48.501v-134c0 -45.333 -7.66699 -82 -23 -110s-34.333 -49.667 -57 -65c-22 -15.333 -45.167 -25.5 -69.5 -30.5s-45.833 -7.5 -64.5 -7.5s-40 2.5 -64 7.5s-47.333 15.167 -70 30.5
c-22 15.333 -40.667 37 -56 65s-23 64.667 -23 110v134c0 18.667 3.5 34.834 10.5 48.501s16.167 24.834 27.5 33.501c7.33301 5.33301 16.666 10.333 27.999 15c-11.333 4.66699 -20.666 9.66699 -27.999 15c-11.333 8.66699 -20.5 19.834 -27.5 33.501
s-10.5 29.834 -10.5 48.501c0 45.333 7.66699 82.166 23 110.499s34 50.166 56 65.499c22.667 15.333 46 25.5 70 30.5s45.333 7.5 64 7.5s40.167 -2.5 64.5 -7.5s47.5 -15.167 69.5 -30.5c22.667 -15.333 41.667 -37.166 57 -65.499s23 -65.166 23 -110.499
c0 -18.667 -3.66699 -34.834 -11 -48.501s-16.666 -24.834 -27.999 -33.501c-7.33301 -5.33301 -16.666 -10.333 -27.999 -15c11.333 -4.66699 20.666 -9.66699 27.999 -15zM308 435c12.667 0 25 1.66699 37 5s22.667 8.66602 32 15.999s16.833 16.333 22.5 27
s8.5 24 8.5 40c0 43.333 -7 77.5 -21 102.5s-30.667 44.5 -50 58.5c-20 13.333 -41.333 22.333 -64 27s-42.667 7 -60 7s-37.333 -2.33301 -60 -7s-43.667 -13.667 -63 -27c-20 -14 -37 -33.5 -51 -58.5s-21 -59.167 -21 -102.5c0 -16 2.83301 -29.333 8.5 -40
s13.167 -19.667 22.5 -27s20 -12.666 32 -15.999s24.333 -5 37 -5h190zM408 329c0 16 -2.83301 29.333 -8.5 40s-13.167 19.667 -22.5 27s-20 12.666 -32 15.999s-24.333 5 -37 5h-190c-12.667 0 -25 -1.66699 -37 -5s-22.667 -8.66602 -32 -15.999
s-16.833 -16.333 -22.5 -27s-8.5 -24 -8.5 -40v-134c0 -42.667 7 -76.667 21 -102s31 -44.666 51 -57.999c19.333 -14 40.333 -23.333 63 -28s42.667 -7 60 -7s37.333 2.33301 60 7s44 14 64 28c19.333 13.333 36 32.666 50 57.999s21 59.333 21 102v134z" />
    <glyph glyph-name="nine" unicode="9" horiz-adv-x="508" 
d="M38 280c-11.333 8.66699 -20.668 19.8369 -28.001 33.5039s-10.666 29.5 -9.99902 47.5v144c-0.666992 45.333 6.66602 82.166 21.999 110.499s34.333 50.166 57 65.499s46 25.333 70 30s45.333 7 64 7h76c14.667 0 29 -1.83301 43 -5.5s26.667 -9.83398 38 -18.501
s20.5 -19.834 27.5 -33.501s10.5 -29.834 10.5 -48.501v-491c0 -40.667 -10.667 -71.667 -32 -93c-10.667 -10 -23 -17.167 -37 -21.5s-29.667 -6.5 -47 -6.5c-27.333 0 -55.666 2 -84.999 6s-57.166 8.66699 -83.499 14s-50.333 10.833 -72 16.5l-50.5 13.5v18l50.5 -13.5
c21.667 -5.66699 45.667 -11.167 72 -16.5s54.166 -10 83.499 -14s57.666 -6 84.999 -6c31.333 0 55 8 71 24c8.66699 7.33301 15.334 17.5 20.001 30.5s7 29.167 7 48.5v248c-7.33301 -17.333 -16.333 -32.166 -27 -44.499s-22 -22.833 -34 -31.5
c-22.667 -15.333 -46.167 -25.5 -70.5 -30.5s-45.833 -7.5 -64.5 -7.5h-76c-14 0 -28 2 -42 6s-26.667 10.333 -38 19zM17.998 361.003c0 -16 2.83105 -29.334 8.49805 -40.001s13.167 -19.667 22.5 -27s20 -12.5 32 -15.5s24.333 -4.5 37 -4.5h77
c17.333 0 37.166 2.33301 59.499 7s43.5 13.667 63.5 27c20 14 36.833 33.667 50.5 59s20.834 59.333 21.501 102v143c-0.666992 16 -3.66699 29.333 -9 40s-12.666 19.667 -21.999 27c-19.333 14 -42.666 21 -69.999 21h-76c-17.333 0 -37.333 -2.33301 -60 -7
s-44 -14 -64 -28c-19.333 -13.333 -36 -32.666 -50 -57.999s-21 -59.333 -21 -102v-144z" />
    <glyph glyph-name="colon" unicode=":" 
d="M30 139v-139h-30v139h30zM30 428v-138h-30v138h30z" />
    <glyph glyph-name="semicolon" unicode=";" 
d="M30 290h-30v138h30v-138zM30 139v-160c0 -42 -10.667 -73 -32 -93l-12 13c8 8 14.333 18.5 19 31.5s7 29.167 7 48.5v21h-12v139h30z" />
    <glyph glyph-name="less" unicode="&#x3c;" horiz-adv-x="282" 
d="M184 501l-154 -253l154 -248h-30l-154 248l154 253h30v0z" />
    <glyph glyph-name="equal" unicode="=" horiz-adv-x="569" 
d="M0 259v30h469v-30h-469zM0 457v29h469v-29h-469z" />
    <glyph glyph-name="greater" unicode="&#x3e;" horiz-adv-x="284" 
d="M30 501l154 -253l-154 -248h-30l154 248l-154 253h30z" />
    <glyph glyph-name="question" unicode="?" horiz-adv-x="449" 
d="M0 168l0.000976562 64.998c0 22 2.83301 43.167 8.5 63.5s15.167 38.333 28.5 54s31.166 28 53.499 37s50.5 13.5 84.5 13.5h57c29.333 0 54.166 3.83301 74.499 11.5s36.666 18.334 48.999 32.001s21.333 29.5 27 47.5s8.5 37.333 8.5 58s-2.83301 40.167 -8.5 58.5
s-14.667 34.166 -27 47.499s-28.666 24 -48.999 32s-45.166 12 -74.499 12h-27c-16 0.666992 -32.5 -0.333008 -49.5 -3s-33.333 -6.33398 -49 -11.001s-30.5 -10 -44.5 -16s-26.333 -12 -37 -18v21c23.333 11.333 51 21.833 83 31.5s64.333 14.5 97 14.5l29 -1
c34 0 62.167 -4.5 84.5 -13.5s40.166 -21.167 53.499 -36.5s22.833 -33.166 28.5 -53.499s8.5 -41.833 8.5 -64.5c0 -22 -2.83301 -43.167 -8.5 -63.5s-15.167 -38.166 -28.5 -53.499s-31.166 -27.5 -53.499 -36.5s-50.5 -13.5 -84.5 -13.5h-57c-29.333 0 -54 -4 -74 -12
s-36.333 -18.667 -49 -32s-21.667 -29.166 -27 -47.499s-8 -37.833 -8 -58.5v-65h-19zM0.000976562 -0.00195312h19v98h-19v-98z" />
    <glyph glyph-name="at" unicode="@" horiz-adv-x="508" 
d="M370 694c11.333 -8.66699 20.501 -19.665 27.501 -32.998s10.5 -29.333 10.5 -48v-384c0 -12.667 -3.5 -24.334 -10.5 -35.001s-20.167 -16 -39.5 -16c-18 0 -31.333 5.33301 -40 16c-8 8.66699 -12.333 20.334 -13 35.001c-18.667 -14 -39.334 -25.833 -62.001 -35.5
s-45.667 -14.834 -69 -15.501h-3c-14 0 -26.833 2.5 -38.5 7.5s-21.834 11.833 -30.501 20.5c-18.667 18.667 -28 41.334 -28 68.001c0 20.667 3.5 38.334 10.5 53.001s16.5 27 28.5 37c12 10.667 26 19 42 25s33 11.333 51 16l31.5 6.5c11.667 2.33301 22.5 5.5 32.5 9.5
c10 5.33301 18.167 11.333 24.5 18s9.5 16.334 9.5 29.001c0 12 -2 21.833 -6 29.5s-9.33301 14.167 -16 19.5c-7.33301 5.33301 -15.333 9.16602 -24 11.499s-17.667 3.5 -27 3.5c-24.667 0 -47.5 -3.83301 -68.5 -11.5s-39.5 -16.167 -55.5 -25.5l-7 12
c16.667 9.33301 36 18.166 58 26.499s46.333 12.5 73 12.5c10.667 0 21 -1.33301 31 -4s19.333 -7.33398 28 -14.001s15.5 -15 20.5 -25s7.5 -21.667 7.5 -35v-226c0 -18 3.33301 -31 10 -39c6 -8 16 -12 30 -12c7.33301 0 14.5 2.83301 21.5 8.5s10.5 14.834 10.5 27.501
v386c0 16 -2.83301 29.333 -8.5 40s-13.167 19.667 -22.5 27s-20 12.666 -32 15.999s-24.333 5 -37 5h-77c-17.333 0 -37.166 -2.5 -59.499 -7.5s-43.5 -14.167 -63.5 -27.5c-20 -14 -37 -33.5 -51 -58.5s-21 -59.167 -21 -102.5v-399c0 -15.333 2.83301 -28.333 8.5 -39
s13.167 -19.667 22.5 -27s20 -12.666 32 -15.999s24.333 -5 37 -5h77c17.333 0 37.333 2.33301 60 7s43.667 14 63 28l11 -16c-22.667 -15.333 -46.167 -25.333 -70.5 -30s-45.5 -7.33398 -63.5 -8.00098h-77c-14 0 -28 2 -42 6s-26.667 10.333 -38 19
s-20.5 19.834 -27.5 33.501s-10.5 29.5 -10.5 47.5v399c0 45.333 7.66699 82.166 23 110.499s34 50.166 56 65.499c22.667 15.333 46.167 25.5 70.5 30.5s45.833 7.5 64.5 7.5h76c14 0 28 -1.83301 42 -5.5s26.667 -10.167 38 -19.5zM304.001 430.002
c-3.33301 -5.33301 -7.5 -9.49902 -12.5 -12.499s-10.167 -5.83301 -15.5 -8.5c-11.333 -5.33301 -23 -9 -35 -11s-22.667 -4 -32 -6c-17.333 -4 -33.5 -9 -48.5 -15s-27.833 -13.667 -38.5 -23c-11.333 -9.33301 -19.833 -20.333 -25.5 -33s-8.5 -28.334 -8.5 -47.001
c0 -22.667 7.83301 -42.167 23.5 -58.5s35.5 -24.5 59.5 -24.5h3c22 1.33301 44.667 7 68 17s44 22.667 62 38v184z" />
    <glyph glyph-name="A" unicode="A" horiz-adv-x="554" 
d="M452 0l-95 290h-262l-95 -290h-19l235 719h20l235 -719h-19zM101 308h250l-125 382z" />
    <glyph glyph-name="B" unicode="B" horiz-adv-x="519" 
d="M419 130c0 -12.667 -0.998047 -26.335 -2.99805 -41.002s-7 -28.667 -15 -42s-19.833 -24.5 -35.5 -33.5s-36.167 -13.5 -61.5 -13.5h-286h-18v719h258c17.333 0 33.166 -2.16699 47.499 -6.5s26.833 -11.833 37.5 -22.5c21.333 -20 32 -50.667 32 -92
c-0.666992 0 -1 -6.83301 -1 -20.5s0.333008 -32.5 1 -56.5c-0.666992 -12 -2 -25.5 -4 -40.5s-7 -29.167 -15 -42.5c-3.33301 -5.33301 -7.33301 -10.666 -12 -15.999s-10.334 -9.66602 -17.001 -12.999c25.333 -4 45.333 -13 60 -27c21.333 -21.333 32 -52.333 32 -93
v-159zM18.002 700.999l0.000976562 -290.999h240c23.333 0 41.166 3.66699 53.499 11s22.166 16.333 29.499 27c6.66699 10.667 10.834 22.667 12.501 36s2.5 25.666 2.5 36.999v77c0 19.333 -2.33301 35.333 -7 48s-11 23 -19 31c-16 16 -40 24 -72 24h-240zM401.003 289
c0 19.333 -2.33203 35.501 -6.99902 48.501s-11 23.167 -19 30.5c-17.333 16 -41.333 24 -72 24h-44h-241v-373h285c23.333 0 41.166 3.5 53.499 10.5s21.833 16.167 28.5 27.5c6.66699 10.667 11 22.667 13 36s3 25.666 3 36.999v159z" />
    <glyph glyph-name="C" unicode="C" horiz-adv-x="507" 
d="M116 19c27.333 0 55.666 2 84.999 6s57.166 8.66699 83.499 14s50.333 10.833 72 16.5l50.5 13.5v-19l-50.5 -13.5c-21.667 -5.66699 -45.667 -11.167 -72 -16.5s-54.166 -10 -83.499 -14s-57.666 -6 -84.999 -6c-17.333 -0 -33 2.33301 -47 7s-26.333 12 -37 22
c-21.333 20 -32 50.667 -32 92v477c0 41.333 10.667 72 32 92c10.667 10.667 23 18.167 37 22.5s29.667 6.5 47 6.5c27.333 0 55.666 -2 84.999 -6s57.166 -8.66699 83.499 -14s50.333 -10.833 72 -16.5l50.5 -13.5v-18l-50.5 13.5c-21.667 5.66699 -45.667 11.167 -72 16.5
s-54.166 10 -83.499 14s-57.666 6 -84.999 6c-31.333 0 -55.333 -8 -72 -24c-8 -8 -14.333 -18.333 -19 -31s-7 -28.667 -7 -48v-477c0 -19.333 2.33301 -35.333 7 -48s11 -23 19 -31c16 -15.333 40 -23 72 -23z" />
    <glyph glyph-name="D" unicode="D" horiz-adv-x="526" 
d="M394 690c21.333 -20 32 -50.667 32 -92v-477c0 -41.333 -10.667 -72 -32 -92c-10.667 -10 -23.167 -17.333 -37.5 -22s-30.166 -7 -47.499 -7c-34 -0 -69.167 2.83301 -105.5 8.5s-69.5 12.167 -99.5 19.5c-36 8 -70.667 17.333 -104 28v607c33.333 10.667 68 20 104 28
c30 7.33301 63.167 13.833 99.5 19.5s71.5 8.5 105.5 8.5c17.333 0 33.166 -2.16699 47.499 -6.5s26.833 -11.833 37.5 -22.5zM407 598c0 19.333 -2.33301 35.333 -7 48s-11 23 -19 31c-16 16 -40 24 -72 24c-27.333 0 -55.5 -2 -84.5 -6s-56.667 -8.66699 -83 -14
s-50.333 -10.833 -72 -16.5l-50.5 -13.5v-582l50.5 -13.5c21.667 -5.66699 45.667 -11.167 72 -16.5s54 -10 83 -14s57.167 -6 84.5 -6c32.667 0 56.667 7.66699 72 23c8 8 14.333 18.333 19 31s7 28.667 7 48v477z" />
    <glyph glyph-name="E" unicode="E" horiz-adv-x="508" 
d="M45 677c-17.333 -16 -26.332 -42.333 -26.999 -79v-230h285v-18h-285v-229c0.666992 -36.667 9.66699 -63 27 -79c15.333 -15.333 39.333 -23 72 -23c26.667 0 54.667 2 84 6s57.166 8.66699 83.499 14s50.333 10.833 72 16.5l50.5 13.5v-19l-50.5 -13.5
c-21.667 -5.66699 -45.667 -11.167 -72 -16.5s-54.166 -10 -83.499 -14s-57.333 -6 -84 -6c-36.667 0 -65 9.66699 -85 29c-21.333 20 -32 50.667 -32 92v477c0 41.333 10.667 72 32 92c10.667 10.667 23.167 18.167 37.5 22.5s30.166 6.5 47.499 6.5
c26.667 0 54.667 -2 84 -6s57.166 -8.66699 83.499 -14s50.333 -10.833 72 -16.5l50.5 -13.5v-18l-50.5 13.5c-21.667 5.66699 -45.667 11.167 -72 16.5s-54.166 10 -83.499 14s-57.333 6 -84 6c-32 0 -56 -8 -72 -24z" />
    <glyph glyph-name="F" unicode="F" horiz-adv-x="416" 
d="M45 677c-8.66699 -8 -15.333 -18.333 -20 -31s-7 -28.667 -7 -48v-230h285v-18h-285v-350h-18v598c0 41.333 10.667 72 32 92c10.667 10.667 23 18.167 37 22.5s29.667 6.5 47 6.5c27.333 0 55.666 -2 84.999 -6s57.166 -8.66699 83.499 -14s50.333 -10.833 72 -16.5
l50.5 -13.5v-18l-50.5 13.5c-21.667 5.66699 -45.667 11.167 -72 16.5s-54.166 10 -83.499 14s-57.666 6 -84.999 6c-31.333 0 -55 -8 -71 -24z" />
    <glyph glyph-name="G" unicode="G" horiz-adv-x="525" 
d="M44 677c-8 -8 -14.334 -18.333 -19.001 -31s-7 -28.667 -7 -48v-477c0 -19.333 2.33301 -35.333 7 -48s11 -23 19 -31c15.333 -15.333 39.333 -23 72 -23c26.667 0 54.667 2 84 6s57.166 8.66699 83.499 14s50.333 10.833 72 16.5l50.5 13.5v193
c0 16 -2.66699 29.333 -8 40s-12.666 19.667 -21.999 27c-19.333 14 -42.666 21 -69.999 21h-12v18h12c14.667 0 29 -1.83301 43 -5.5s26.667 -9.83398 38 -18.501c11.333 -9.33301 20.5 -20.666 27.5 -33.999s10.5 -29.333 10.5 -48v-206c-34 -10.667 -68.667 -20 -104 -28
c-30.667 -7.33301 -64 -13.833 -100 -19.5s-71 -8.5 -105 -8.5c-17.333 -0 -33.166 2.33301 -47.499 7s-26.833 12 -37.5 22c-21.333 20 -32 50.667 -32 92v477c0 41.333 10.667 72 32 92c10.667 10.667 23.167 18.167 37.5 22.5s30.166 6.5 47.499 6.5
c34 0 69 -2.83301 105 -8.5s69.333 -12.167 100 -19.5c35.333 -8 70 -17.333 104 -28v-18c-34 10.667 -68.667 20 -104 28c-30.667 7.33301 -64 13.833 -100 19.5s-71 8.5 -105 8.5c-32 0 -56 -8 -72 -24z" />
    <glyph glyph-name="H" unicode="H" horiz-adv-x="525" 
d="M407 718h18v-718h-18v349h-389v-349h-18v718h18v-350h389v350v0z" />
    <glyph glyph-name="I" unicode="I" horiz-adv-x="265" 
d="M165 701h-74v-682h74v-19h-165v19h73v682h-73v18h165v-18v0z" />
    <glyph glyph-name="J" unicode="J" horiz-adv-x="383" 
d="M283 718v-597c0 -42 -10.667 -73 -32 -93c-10.667 -10 -23 -17.167 -37 -21.5s-29.667 -6.5 -47 -6.5c-27.333 -0 -55.333 1.83301 -84 5.5s-56.334 8.16699 -83.001 13.5v18c26.667 -5.33301 54.334 -9.83301 83.001 -13.5s56.667 -5.5 84 -5.5
c30.667 0 54.667 7.66699 72 23c8 8 14.333 18.5 19 31.5s7 29.167 7 48.5v597h18z" />
    <glyph glyph-name="K" unicode="K" horiz-adv-x="508" 
d="M425 0h-11l-12 1l-262 426l-122 -126v-301h-18v719h18v-392l380 392h25l-270 -279z" />
    <glyph glyph-name="L" unicode="L" horiz-adv-x="372" 
d="M17 719l-0.000976562 -598c0 -19.333 2.33301 -35.333 7 -48s11 -23 19 -31c16 -15.333 40 -23 72 -23c27.333 0 55.333 1.83301 84 5.5s56.334 8.16699 83.001 13.5v-18c-26.667 -5.33301 -54.334 -10 -83.001 -14s-56.667 -6 -84 -6
c-17.333 -0 -33.166 2.33301 -47.499 7s-26.5 12 -36.5 22c-21.333 20 -32 50.667 -32 92v598h18z" />
    <glyph glyph-name="M" unicode="M" horiz-adv-x="591" 
d="M491 719v-719h-19v679l-217 -472h-19l-217 472v-679h-19v719h21l225 -486l224 486h21z" />
    <glyph glyph-name="N" unicode="N" horiz-adv-x="508" 
d="M408 719v-719h-18l-372 677v-677h-18v719h18l372 -676v676h18z" />
    <glyph glyph-name="O" unicode="O" horiz-adv-x="509" 
d="M0 505c0 45.333 7.66699 82.167 23 110.5s34 50.166 56 65.499c22.667 15.333 46.167 25.5 70.5 30.5s45.833 7.5 64.5 7.5h76c14 0 28 -2 42 -6s26.667 -10.333 38 -19s20.5 -19.834 27.5 -33.501s10.5 -29.5 10.5 -47.5v-399c0 -45.333 -7.66699 -82.166 -23 -110.499
s-34 -50.166 -56 -65.499c-22.667 -15.333 -46.167 -25.5 -70.5 -30.5s-45.5 -7.5 -63.5 -7.5h-77c-14 -0 -28 1.83301 -42 5.5s-26.667 10.167 -38 19.5c-11.333 8.66699 -20.5 19.667 -27.5 33s-10.5 29.333 -10.5 48v399zM18 106.001c0 -16 2.83301 -29.333 8.5 -40
s13.167 -19.667 22.5 -27s20 -12.5 32 -15.5s24.333 -4.5 37 -4.5h77c17.333 0 37.333 2.33301 60 7s43.667 13.667 63 27c20 14 37 33.5 51 58.5s21 59.167 21 102.5v399c0 15.333 -2.83301 28.333 -8.5 39s-13.167 19.667 -22.5 27s-20 12.666 -32 15.999s-24.333 5 -37 5
h-77c-17.333 0 -37.333 -2.33301 -60 -7s-43.667 -14 -63 -28c-20 -13.333 -37 -32.666 -51 -57.999s-21 -59.333 -21 -102v-399z" />
    <glyph glyph-name="P" unicode="P" horiz-adv-x="497" 
d="M408 365c0.666992 -46 -6.66406 -83.0029 -21.9971 -111.003s-34.333 -49.667 -57 -65c-20.667 -14 -42.834 -23.833 -66.501 -29.5s-43.167 -8.5 -58.5 -8.5c-20.667 0 -41.334 2.5 -62.001 7.5s-41.667 15.167 -63 30.5c-12 8.66699 -23.333 19 -34 31
s-19.667 26.667 -27 44v-264h-18v365v247c0 18.667 3.5 34.834 10.5 48.501s16.167 24.834 27.5 33.501s24 14.834 38 18.501s28 5.5 42 5.5h77c18.667 0 40 -2.5 64 -7.5s47.333 -15.167 70 -30.5s41.667 -37 57 -65s22.666 -65 21.999 -111v-139zM319.002 203.997
c19.333 14 35.999 33.501 49.999 58.501s21 59.167 21 102.5v139c0 43.333 -7 77.666 -21 102.999s-31 44.666 -51 57.999c-19.333 14 -40.333 23.333 -63 28s-42.667 7 -60 7h-77c-12.667 0 -25 -1.66699 -37 -5s-22.667 -8.66602 -32 -15.999s-16.833 -16.333 -22.5 -27
s-8.5 -24 -8.5 -40v-247c0.666992 -43.333 7.83398 -77.5 21.501 -102.5s30.5 -44.5 50.5 -58.5c18 -12.667 37.333 -21.834 58 -27.501s39.334 -8.16699 56.001 -7.5c17.333 1.33301 36.166 4.33301 56.499 9s39.833 13.334 58.5 26.001z" />
    <glyph glyph-name="Q" unicode="Q" horiz-adv-x="508" 
d="M454 2l-10.9961 0.00683594h-12l-54 88c-6.66699 -11.333 -14 -21 -22 -29s-16.667 -15.333 -26 -22c-21.333 -14.667 -42.333 -24.5 -63 -29.5s-41.334 -7.5 -62.001 -7.5c-15.333 0 -34.833 2.66699 -58.5 8s-45.834 15 -66.501 29
c-22 15.333 -40.667 37.166 -56 65.499s-23 65.166 -23 110.499v291c0 45.333 7.66699 82.166 23 110.499s34 50.166 56 65.499c22.667 15.333 46.167 25.5 70.5 30.5s45.833 7.5 64.5 7.5h76c14 0 28 -1.83301 42 -5.5s26.667 -9.83398 38 -18.501
s20.666 -19.834 27.999 -33.501s10.666 -29.834 9.99902 -48.501v-399c0.666992 -21.333 -0.833008 -40.833 -4.5 -58.5s-9.16699 -33.5 -16.5 -47.5zM318.004 55.0068c19.333 12 35.334 29.3359 48.001 52.0029l-59 97h22l47 -76c9.33301 24.667 14 53.667 14 87v399
c0 16 -2.83301 29.333 -8.5 40s-13.167 19.667 -22.5 27s-20 12.666 -32 15.999s-24.333 5 -37 5h-77c-17.333 0 -37.166 -2.33301 -59.499 -7s-43.5 -14 -63.5 -28s-36.833 -33.5 -50.5 -58.5s-20.834 -59.167 -21.501 -102.5v-291
c0.666992 -42.667 7.83398 -76.667 21.501 -102s30.5 -44.666 50.5 -57.999c18 -13.333 37.167 -22.333 57.5 -27s39.166 -7.33398 56.499 -8.00098s36.166 1.66602 56.499 6.99902s39.5 14.666 57.5 27.999z" />
    <glyph glyph-name="R" unicode="R" horiz-adv-x="509" 
d="M329 682c22.667 -15.333 41.6699 -37.1719 57.0029 -65.5049s23 -65.166 23 -110.499v-59c0 -46 -7.66699 -83 -23 -111s-34.333 -49.667 -57 -65c-20.667 -14.667 -43.334 -24.667 -68.001 -30l148 -239h-11h-12l-144 235
c-8.66699 -1.33301 -16.834 -2.33301 -24.501 -3s-15.167 -1 -22.5 -1h-76c-14.667 0 -28.834 1.83301 -42.501 5.5s-26.167 9.83398 -37.5 18.501c-8 6 -14.667 12.667 -20 20v-275h-19v612c0 18.667 3.66699 34.834 11 48.501s16.666 24.834 27.999 33.501
s23.833 14.834 37.5 18.501s27.834 5.5 42.501 5.5h76c18.667 0 40.167 -2.5 64.5 -7.5s47.5 -15.167 69.5 -30.5zM390.003 505.994c0 43.333 -6.83301 77.498 -20.5 102.498s-30.5 44.5 -50.5 58.5s-41.333 23.333 -64 28s-42.667 7 -60 7h-76
c-12.667 0 -25 -1.66699 -37 -5s-22.667 -8.66602 -32 -15.999s-16.833 -16.333 -22.5 -27s-8.5 -24 -8.5 -40v-108v-147v-20c0 -16 2.83301 -29.333 8.5 -40s13.167 -19.667 22.5 -27s20 -12.666 32 -15.999s24.333 -5 37 -5h76c17.333 0 37.333 2.33301 60 7s44 14 64 28
s36.833 33.5 50.5 58.5s20.5 59.167 20.5 102.5v59z" />
    <glyph glyph-name="S" unicode="S" horiz-adv-x="479" 
d="M384 168c0 -22 -2.66797 -43.166 -8.00098 -63.499s-14.666 -38.333 -27.999 -54s-31.166 -28 -53.499 -37s-50.5 -13.5 -84.5 -13.5h-30c-32.667 0 -65 4.66699 -97 14s-59.667 20 -83 32v20c10.667 -6 23.167 -11.833 37.5 -17.5s29.333 -10.834 45 -15.501
s31.834 -8.5 48.501 -11.5s33 -4.16699 49 -3.5h28c29.333 0 54 4 74 12s36.333 18.667 49 32s21.667 29.166 27 47.499s8 37.833 8 58.5v65c0 20.667 -2.66699 40 -8 58s-14.333 33.667 -27 47s-29 24 -49 32s-44.667 12 -74 12h-57c-34 0 -62.167 4.5 -84.5 13.5
s-40.333 21.333 -54 37s-23.167 33.667 -28.5 54s-8 41.5 -8 63.5s2.66699 43.167 8 63.5s14.833 38.333 28.5 54s31.667 28 54 37s50.5 13.5 84.5 13.5h29c32.667 0 65 -4.66699 97 -14s59.667 -20 83 -32v-20c-10.667 6 -23 11.833 -37 17.5s-28.833 10.834 -44.5 15.501
s-32 8.5 -49 11.5s-33.5 4.16699 -49.5 3.5h-27c-29.333 0 -54.166 -4 -74.499 -12s-36.833 -18.667 -49.5 -32s-21.667 -29.166 -27 -47.499s-8 -37.833 -8 -58.5s2.66699 -40 8 -58s14.333 -33.833 27 -47.5s29.167 -24.334 49.5 -32.001s45.166 -11.5 74.499 -11.5h57
c34 0 62.167 -4.5 84.5 -13.5s40.166 -21.333 53.499 -37s22.666 -33.667 27.999 -54s8 -41.5 8 -63.5v-65z" />
    <glyph glyph-name="T" unicode="T" horiz-adv-x="403" 
d="M163 700v-700h-18v700h-204v18h426v-18h-204v0z" />
    <glyph glyph-name="U" unicode="U" horiz-adv-x="509" 
d="M390 719l19 -0.00195312v-505c0 -45.333 -7.66699 -82.166 -23 -110.499s-34.333 -50.166 -57 -65.499c-22 -15.333 -45.167 -25.5 -69.5 -30.5s-45.833 -7.5 -64.5 -7.5h-76c-14.667 0 -28.834 2 -42.501 6s-26.167 10.333 -37.5 19s-20.666 19.667 -27.999 33
s-11 29.333 -11 48v613h19v-613c0 -16 2.83301 -29.333 8.5 -40s13.167 -19.667 22.5 -27s20 -12.5 32 -15.5s24.333 -4.5 37 -4.5h76c17.333 0 37.333 2.33301 60 7s44 13.667 64 27c20 14 36.833 33.667 50.5 59s20.5 59.333 20.5 102v505z" />
    <glyph glyph-name="V" unicode="V" horiz-adv-x="512" 
d="M470 719l-235 -719h-20l-235 719h20l225 -685l225 685h20z" />
    <glyph glyph-name="W" unicode="W" horiz-adv-x="814" 
d="M756 719l-235 -719h-20l-133 407l-133 -407h-20l-235 719h20l225 -685l225 685h20l-92 -281l133 -404l225 685h20z" />
    <glyph glyph-name="X" unicode="X" horiz-adv-x="519" 
d="M221 359l205 -360h-21l-193 339l-190 -339h-22l201 359l-201 361h22l189 -340l194 340h21z" />
    <glyph glyph-name="Y" unicode="Y" horiz-adv-x="440" 
d="M402 719l-297 -720h-21l77 185l-161 535h20l152 -506l209 506h21z" />
    <glyph glyph-name="Z" unicode="Z" horiz-adv-x="502" 
d="M22 17h403v-18h-425v22l406 680h-407v18h426v-26z" />
    <glyph glyph-name="bracketleft" unicode="[" horiz-adv-x="226" 
d="M19 700v-861h107v-18h-126v897h126v-18h-107z" />
    <glyph glyph-name="bracketright" unicode="]" horiz-adv-x="225" 
d="M0 700v18h126v-897h-126v18h108v861h-108z" />
    <glyph glyph-name="underscore" unicode="_" horiz-adv-x="544" 
d="M444 -30h-444v30h444v-30v0z" />
    <glyph glyph-name="grave" unicode="`" 
d="M30 719l-0.000976562 -160c0 -42 -10.667 -73 -32 -93l-13 13c8.66699 8 15.334 18.5 20.001 31.5s7 29.167 7 48.5v21h-12v139h30z" />
    <glyph glyph-name="a" unicode="a" horiz-adv-x="453" 
d="M346 34c8.66699 -10 22.6631 -14.9971 41.9961 -14.9971v-19h-1c-24 0 -42.333 7.33301 -55 22c-9.33301 11.333 -15 27.333 -17 48c-25.333 -19.333 -53.5 -35.5 -84.5 -48.5s-62.167 -20.167 -93.5 -21.5h-4c-19.333 0 -37.166 3.5 -53.499 10.5
s-30.166 16.5 -41.499 28.5c-25.333 25.333 -38 56 -38 92c0 28 4.66699 52.167 14 72.5s22.333 37.166 39 50.499c16.667 14 35.834 25.333 57.501 34s44.834 15.667 69.501 21c13.333 3.33301 27.833 6.5 43.5 9.5s30.5 7.5 44.5 13.5c13.333 6.66699 24.333 14.667 33 24
s13 22.666 13 39.999c0 16 -2.83301 29.333 -8.5 40s-13.167 19.667 -22.5 27s-20 12.5 -32 15.5s-24.333 4.5 -37 4.5c-34 0 -65.167 -5.33301 -93.5 -16s-53.5 -22 -75.5 -34l-9 16c22.667 12.667 49 24.667 79 36s63 17 99 17c14.667 0 28.834 -2 42.501 -6
s26.167 -10.333 37.5 -19s20.666 -19.667 27.999 -33s11 -29.333 11 -48v-309c0 -24.667 4.33301 -42.334 13 -53.001zM135.996 19.0029c30.667 0.666992 61.832 7.99902 93.499 21.999s59.834 31.333 84.501 52v250c-5.33301 -6 -11.333 -11.333 -18 -16
s-13.667 -8.66699 -21 -12c-15.333 -6.66699 -31.333 -11.5 -48 -14.5s-31 -5.83301 -43 -8.5c-24 -5.33301 -46.167 -12.166 -66.5 -20.499s-37.833 -18.833 -52.5 -31.5c-14.667 -12 -26 -26.833 -34 -44.5s-12 -39.167 -12 -64.5c0 -15.333 2.83301 -29.833 8.5 -43.5
s13.5 -25.5 23.5 -35.5s22 -18 36 -24s29.333 -9 46 -9h3z" />
    <glyph glyph-name="b" unicode="b" horiz-adv-x="415" 
d="M0 719h18.002v-263c23.333 11.333 51 21.833 83 31.5s64.333 14.5 97 14.5c17.333 0 33.166 -2.33301 47.499 -7s26.833 -12 37.5 -22c21.333 -20 32 -50.667 32 -92v-251c-0.666992 -12.667 -2 -26.334 -4 -41.001s-7 -28.667 -15 -42s-19.833 -24.5 -35.5 -33.5
s-36.167 -13.5 -61.5 -13.5h-1v9v-9c-31.333 1.33301 -62.833 8.5 -94.5 21.5s-60.5 29.167 -86.5 48.5c-0.666992 -19.333 -6.33398 -35.333 -17.001 -48c-12 -14.667 -30.333 -22 -55 -22v19c19.333 0 33 5 41 15c9.33301 10.667 14 28.334 14 53.001v632zM296.002 381
c0 19.333 -2.33008 35.332 -6.99707 47.999s-11 23 -19 31c-15.333 15.333 -39.333 23 -72 23c-32.667 0.666992 -65.334 -4.16602 -98.001 -14.499s-60 -21.5 -82 -33.5v-136v-168v-38c25.333 -20.667 54.166 -38 86.499 -52s63.5 -21.333 93.5 -22
c23.333 0 41.166 3.5 53.499 10.5s22.166 15.833 29.499 26.5c6.66699 11.333 10.834 23.5 12.501 36.5s2.5 25.5 2.5 37.5v251z" />
    <glyph glyph-name="c" unicode="c" horiz-adv-x="415" 
d="M19 121c0 -19.333 2.33301 -35.333 7 -48s11 -23 19 -31c16 -16 40 -24 72 -24s64.5 5.16699 97.5 15.5s60.5 21.5 82.5 33.5c2.66699 1.33301 5.5 2.83301 8.5 4.5s6.16699 3.16699 9.5 4.5v-20l-9.5 -5.5c-3 -1.66699 -5.83301 -3.16699 -8.5 -4.5
c-23.333 -11.333 -51 -21.833 -83 -31.5s-64.333 -14.5 -97 -14.5c-17.333 0 -33.166 2.16699 -47.499 6.5s-26.833 11.833 -37.5 22.5c-21.333 20 -32 50.667 -32 92v260c0 41.333 10.667 72 32 92c10.667 10 23.167 17.333 37.5 22s30.166 7 47.499 7
c32.667 0 65 -4.83301 97 -14.5s59.667 -20.167 83 -31.5c2.66699 -1.33301 5.5 -2.83301 8.5 -4.5l9.5 -5.5v-21l-9.5 5.5c-3 1.66699 -5.83301 3.16699 -8.5 4.5c-22 12 -49.5 23 -82.5 33s-65.5 15 -97.5 15c-32.667 0 -56.667 -7.66699 -72 -23
c-8 -8 -14.333 -18.333 -19 -31s-7 -28.667 -7 -48v-260z" />
    <glyph glyph-name="d" unicode="d" horiz-adv-x="453" 
d="M333 86c0 -24 4.33105 -41.3311 12.998 -51.998c8.66699 -10 22.667 -15 42 -15v-19h-1c-24 0 -42.333 7.33301 -55 22c-9.33301 11.333 -15 27.333 -17 48c-25.333 -19.333 -53.5 -35.5 -84.5 -48.5s-62.167 -20.167 -93.5 -21.5h-4c-19.333 0 -37.166 3.5 -53.499 10.5
s-30.166 16.5 -41.499 28.5c-25.333 25.333 -38 56 -38 92v157c0 45.333 7.66699 82.166 23 110.499s34.333 50.166 57 65.499c22 15.333 45.167 25.5 69.5 30.5s45.833 7.5 64.5 7.5c14.667 0 29 -2 43 -6s26.667 -10.333 38 -19c8 -5.33301 14.333 -12 19 -20v262h19v-633
zM135.998 19.002c30.667 0.666992 61.832 8 93.499 22s59.834 31.333 84.501 52v19v284c0 16 -2.83301 29.333 -8.5 40s-13.167 19.667 -22.5 27s-20 12.5 -32 15.5s-24.333 4.5 -37 4.5c-17.333 0 -37.333 -2.33301 -60 -7s-44 -13.667 -64 -27
c-19.333 -14 -36 -33.5 -50 -58.5s-21 -59.167 -21 -102.5v-157c0 -15.333 2.83301 -29.833 8.5 -43.5s13.5 -25.5 23.5 -35.5s22 -18 36 -24s29.333 -9 46 -9h3z" />
    <glyph glyph-name="e" unicode="e" horiz-adv-x="433" 
d="M331 344c0 -12.667 -1 -26.334 -3 -41.001s-7 -28.667 -15 -42s-19.833 -24.5 -35.5 -33.5s-36.167 -13.5 -61.5 -13.5h-198v-84c0 -15.333 2.83301 -29.833 8.5 -43.5s13.5 -25.5 23.5 -35.5s22 -18 36 -24s29.333 -9 46 -9h3c31.333 1.33301 63 9.16602 95 23.499
s60.667 32.166 86 53.499l12 -14c-26 -22.667 -56 -41.5 -90 -56.5s-68 -23.167 -102 -24.5h-4c-19.333 0 -37.166 3.5 -53.499 10.5s-30.166 16.167 -41.499 27.5c-24.667 24.667 -37 55.334 -37 92.001v173c1.33301 40.667 9.5 73.834 24.5 99.501
s33.167 45.834 54.5 60.501c22 15.333 45.167 25.5 69.5 30.5s45.833 7.5 64.5 7.5h2c17.333 0 33.166 -2.16699 47.499 -6.5s26.833 -11.5 37.5 -21.5c3.33301 -4 6.66602 -8.33301 9.99902 -13c6.66699 -8 12 -17.5 16 -28.5s5.66699 -23.167 5 -36.5v-15v-36zM313 380
c0 29.333 -5.66602 52.334 -16.999 69.001c-2 2.66699 -4.16699 5 -6.5 7s-4.83301 4 -7.5 6c-9.33301 7.33301 -20 12.666 -32 15.999s-24.333 5 -37 5c-17.333 0 -37.333 -2.33301 -60 -7s-44 -14 -64 -28c-17.333 -12 -32.5 -28.667 -45.5 -50s-21.167 -49 -24.5 -83
l-1 -83h197c23.333 0.666992 41.166 4.5 53.499 11.5s22.166 15.833 29.499 26.5c6.66699 11.333 10.834 23.5 12.501 36.5s2.5 25.5 2.5 37.5v36z" />
    <glyph glyph-name="f" unicode="f" horiz-adv-x="240" 
d="M218 718l-3.99902 -18l-9 2c-20.667 4.66699 -42.667 7 -66 7c-32.667 0 -56.667 -7.66699 -72 -23c-8 -8 -14.333 -18.333 -19 -31s-7 -28.667 -7 -48v-96h138v-19h-138v-492h-18v492h-56v19h56v96c0 41.333 10.333 72 31 92c10.667 10.667 23.167 18.167 37.5 22.5
s30.166 6.5 47.499 6.5c22 0 45.333 -2.66699 70 -8z" />
    <glyph glyph-name="g" unicode="g" horiz-adv-x="451" 
d="M30 203c-8 -7.33301 -11.998 -15.6641 -11.998 -24.9971c0 -4.66699 1 -9.33398 3 -14.001c1.33301 -4.66699 4 -8.66699 8 -12c4 -4 9.66699 -7.33301 17 -10s17.666 -4 30.999 -4h99c32.667 0 60.167 -4.5 82.5 -13.5s40.333 -21 54 -36s23.5 -32 29.5 -51
s9 -38.5 9 -58.5s-3 -39.5 -9 -58.5s-15.833 -35.833 -29.5 -50.5s-31.667 -26.5 -54 -35.5s-49.833 -13.5 -82.5 -13.5s-65 4.66699 -97 14s-59.667 20 -83 32v21c22 -12 49.5 -23.167 82.5 -33.5s65.5 -15.5 97.5 -15.5c28 0 52 3.66699 72 11s36.333 17.333 49 30
s21.834 27.5 27.501 44.5s8.5 35.167 8.5 54.5s-3 37.5 -9 54.5s-15.333 31.833 -28 44.5s-29.167 22.667 -49.5 30s-44.5 11 -72.5 11h-97c-20.667 0 -37.334 3.66699 -50.001 11c-12 6.66699 -20 16 -24 28c-2 6.66699 -3 13.334 -3 20.001c0 16 5.66699 29 17 39
c8 7.33301 18 12 30 14c-8.66699 8.66699 -15.667 17 -21 25c-9.33301 13.333 -16 27.833 -20 43.5s-6 31.167 -6 46.5s2 30.666 6 45.999s10.667 29.666 20 42.999s21.166 25 35.499 35s31.833 16.667 52.5 20c20 3.33301 40.167 6 60.5 8s40.166 3 59.499 3
c17.333 0 33.166 -2.16699 47.499 -6.5s26.833 -11.5 37.5 -21.5c21.333 -20 32 -51 32 -93v-69c0 -40.667 -10.667 -71.667 -32 -93c-10.667 -10 -23.167 -17.167 -37.5 -21.5s-30.166 -6.5 -47.499 -6.5c-19.333 0 -39.166 1 -59.499 3s-40.5 4.66699 -60.5 8
c-13.333 2 -24.333 5.33301 -33 10c-3.33301 1.33301 -6.83301 2.16602 -10.5 2.49902s-7.16699 0.5 -10.5 0.5c-12.667 0 -22.667 -3.66699 -30 -11zM41.002 266.002c8 -11.333 18.167 -21.168 30.5 -29.501s27.5 -14.166 45.5 -17.499c19.333 -3.33301 39 -6 59 -8
s39.333 -3 58 -3c32 0 56 8 72 24c17.333 15.333 26.333 41.666 27 78.999v69c-0.666992 37.333 -9.66699 63.666 -27 78.999c-16 16 -40 24 -72 24c-37.333 0 -76.333 -3.66699 -117 -11c-18 -3.33301 -33.167 -9.16602 -45.5 -17.499s-22.5 -18.166 -30.5 -29.499
s-13.833 -24 -17.5 -38s-5.5 -27.667 -5.5 -41c0 -14 1.83301 -28 5.5 -42s9.5 -26.667 17.5 -38z" />
    <glyph glyph-name="h" unicode="h" horiz-adv-x="415" 
d="M315 0l-18.999 0.000976562v381c0 19.333 -2.33301 35.333 -7 48s-11 23 -19 31c-15.333 15.333 -39.333 23 -72 23c-32 0 -64.5 -5 -97.5 -15s-60.5 -21 -82.5 -33v-435h-18v719h18v-263c23.333 11.333 51 21.666 83 30.999s64.333 14.333 97 15
c17.333 0 33.166 -2.33301 47.499 -7s26.833 -12 37.5 -22c21.333 -20 32 -50.667 32 -92v-381z" />
    <glyph glyph-name="i" unicode="i" horiz-adv-x="128" 
d="M28 502v-502h-18v502h18zM28 621h-18v98h18v-98z" />
    <glyph glyph-name="j" unicode="j" horiz-adv-x="144" 
d="M44 719v-98h-18v98h18zM26 502h18v-560c0 -41.333 -10.667 -72 -32 -92c-10.667 -10 -23 -17.333 -37 -22s-29.667 -7 -47 -7h-9v19h9c32 0 56 7.66699 72 23c8 8 14.333 18.333 19 31s7 28.667 7 48v560z" />
    <glyph glyph-name="k" unicode="k" horiz-adv-x="455" 
d="M322 0l-108 195.999c-3.33301 -0.666992 -8.33301 -1 -15 -1c-32.667 0 -65 4.66699 -97 14s-59.667 20 -83 32v-241h-19v251v195v273h19v-263c23.333 11.333 51 21.833 83 31.5s64.333 14.5 97 14.5c17.333 0 33 -2.33301 47 -7s26.333 -12 37 -22
c21.333 -20 32 -50.667 32 -92v-65c0 -40.667 -10.667 -71.667 -32 -93c-12 -11.333 -28.333 -19.666 -49 -24.999l109 -198h-21zM19 261.999c10.667 -6 23 -12 37 -18s28.833 -11.167 44.5 -15.5s32 -8 49 -11s33.5 -4.5 49.5 -4.5c31.333 0 55 8 71 24
c8.66699 7.33301 15.334 17.5 20.001 30.5s7 29.167 7 48.5v65c0 19.333 -2.33301 35.333 -7 48s-11.334 23 -20.001 31c-15.333 15.333 -39 23 -71 23c-16 0 -32.5 -1.33301 -49.5 -4s-33.333 -6.16699 -49 -10.5s-30.5 -9.5 -44.5 -15.5s-26.333 -12 -37 -18v-173z" />
    <glyph glyph-name="l" unicode="l" horiz-adv-x="208" 
d="M0 719h17.999v-598c0 -19.333 2.33301 -35.5 7 -48.5s11.334 -23.167 20.001 -30.5c16 -16 39.667 -24 71 -24h10v-18h-10c-17.333 0 -33 2.16699 -47 6.5s-26.333 11.833 -37 22.5c-21.333 20 -32 50.667 -32 92v598z" />
    <glyph glyph-name="m" unicode="m" horiz-adv-x="711" 
d="M315 9l-0.00195312 -8.99707h-18v381c0 19.333 -2.33301 35.333 -7 48s-11.334 23 -20.001 31c-15.333 15.333 -39 23 -71 23c-16 0 -32.5 -1.33301 -49.5 -4s-33.333 -6.33398 -49 -11.001s-30.5 -9.83398 -44.5 -15.501s-26.333 -11.5 -37 -17.5v-435h-19v446l5 2
c11.333 6.66699 24.5 13.167 39.5 19.5s31 12 48 17s34.5 9.16699 52.5 12.5s36 5 54 5c17.333 0 33 -2.33301 47 -7s26.333 -12 37 -22c14 -13.333 23.667 -32.666 29 -57.999c6.66699 10.667 13.834 20 21.501 28s15.834 15 24.501 21
c22.667 15.333 46.167 25.5 70.5 30.5s45.833 7.5 64.5 7.5c14 0 28 -2 42 -6s26.667 -10.333 38 -19s20.5 -19.834 27.5 -33.501s10.5 -29.5 10.5 -47.5v-396h-18v396c0 15.333 -2.83301 28.333 -8.5 39s-13.167 19.667 -22.5 27s-20 12.666 -32 15.999s-24.333 5 -37 5h-1
c-17.333 0 -37.166 -2.33301 -59.499 -7s-43.5 -14 -63.5 -28c-11.333 -7.33301 -21.5 -16.333 -30.5 -27s-16.833 -23.667 -23.5 -39v-373z" />
    <glyph glyph-name="n" unicode="n" horiz-adv-x="414" 
d="M296 0l0.00195312 381c0 19.333 -2.33301 35.333 -7 48s-11 23 -19 31c-16 15.333 -40 23 -72 23c-32.667 0 -65.334 -5 -98.001 -15s-60 -21 -82 -33v-435h-18v446l4 2c11.333 6.66699 24.5 13.167 39.5 19.5s31 12 48 17s34.5 9.16699 52.5 12.5s36 5 54 5
c17.333 0 33.166 -2.33301 47.499 -7s26.5 -12 36.5 -22c21.333 -20 32 -50.667 32 -92v-372v-9h-18z" />
    <glyph glyph-name="o" unicode="o" horiz-adv-x="431" 
d="M293 477c11.333 -8.66699 20.667 -19.834 28 -33.501s10.666 -29.834 9.99902 -48.501v-181c0.666992 -46 -6.66602 -83 -21.999 -111s-34.333 -49.667 -57 -65s-46 -25.5 -70 -30.5s-45.333 -7.5 -64 -7.5c-14.667 0 -28.834 1.83301 -42.501 5.5
s-26.167 9.83398 -37.5 18.501s-20.666 19.834 -27.999 33.501s-10.666 29.834 -9.99902 48.501v181c-0.666992 46 6.66602 83 21.999 111s34.333 49.667 57 65s46 25.5 70 30.5s45.333 7.5 64 7.5c14 0 28 -1.83301 42 -5.5s26.667 -9.83398 38 -18.501zM241.001 53
c20 13.333 37 32.668 51 58.001s21 59.666 21 102.999v181c0 16 -2.83301 29.333 -8.5 40s-13.167 19.667 -22.5 27s-20 12.666 -32 15.999s-24.333 5 -37 5c-17.333 0 -37.333 -2.33301 -60 -7s-44 -14 -64 -28c-19.333 -14 -36 -33.5 -50 -58.5s-21 -59.167 -21 -102.5
v-181c0 -16 2.83301 -29.333 8.5 -40s13.167 -19.667 22.5 -27s20 -12.666 32 -15.999s24.333 -5 37 -5c17.333 0 37.333 2.33301 60 7s43.667 14 63 28z" />
    <glyph glyph-name="p" unicode="p" horiz-adv-x="415" 
d="M0 446l5.00098 2.00098c23.333 13.333 52.333 25.5 87 36.5s70 16.833 106 17.5c36.667 0 65 -9.66699 85 -29c21.333 -20 32 -50.667 32 -92v-251c0 -12.667 -1 -26.334 -3 -41.001s-7 -28.667 -15 -42s-20 -24.5 -36 -33.5s-37 -13.5 -63 -13.5v9v-9
c-30.667 1.33301 -61.834 8.33301 -93.501 21s-60.5 28.667 -86.5 48v-259h-18v636zM199.001 18.001c23.333 0.666992 41.168 4.50098 53.501 11.501s21.833 15.833 28.5 26.5c6.66699 11.333 11 23.5 13 36.5s2.66699 25.5 2 37.5v143v108c0 36.667 -8.66699 63 -26 79
c-15.333 15.333 -39.333 23 -72 23c-32 0 -64.5 -5 -97.5 -15s-60.5 -21 -82.5 -33v-343c25.333 -20.667 54.166 -37.834 86.499 -51.501s63.833 -21.167 94.5 -22.5z" />
    <glyph glyph-name="q" unicode="q" horiz-adv-x="432" 
d="M332 -190l-18 0.00195312v259c-25.333 -19.333 -53.5 -35.333 -84.5 -48s-62.167 -19.667 -93.5 -21h-4c-19.333 0 -37 3.5 -53 10.5s-30 16.5 -42 28.5c-11.333 12 -20.333 25.833 -27 41.5s-10 32.5 -10 50.5v157c-0.666992 45.333 6.66602 82.166 21.999 110.499
s34.333 50.166 57 65.499s46.167 25.5 70.5 30.5s45.5 7.5 63.5 7.5c14.667 0 29 -2 43 -6s26.667 -10.333 38 -19c10.667 -8 19.334 -18 26.001 -30s10.667 -26 12 -42v-595zM314 396.002c-0.666992 15.333 -3.66797 28.332 -9.00098 38.999s-12.666 19.667 -21.999 27
s-20 12.666 -32 15.999s-24.667 5 -38 5c-17.333 0 -37.333 -2.33301 -60 -7s-43.667 -14 -63 -28c-20 -13.333 -37 -32.666 -51 -57.999s-21 -59.333 -21 -102v-157c0 -15.333 2.83301 -29.833 8.5 -43.5s13.5 -25.667 23.5 -36s22 -18.5 36 -24.5s29.333 -9 46 -9h4
c30 1.33301 60.833 8.83301 92.5 22.5s60.167 30.834 85.5 51.501v304z" />
    <glyph glyph-name="r" unicode="r" horiz-adv-x="318" 
d="M270 460c-16.667 15.333 -40.665 23 -71.998 23c-16 0 -32.333 -1.5 -49 -4.5s-32.834 -6.66699 -48.501 -11s-30.667 -9.33301 -45 -15s-26.833 -11.5 -37.5 -17.5v-435h-18v445l4 3c11.333 6.66699 24.5 13.167 39.5 19.5s31 12 48 17s34.5 9 52.5 12s36 4.5 54 4.5
c17.333 0 33.166 -2.16699 47.499 -6.5s26.833 -11.5 37.5 -21.5z" />
    <glyph glyph-name="s" unicode="s" horiz-adv-x="395" 
d="M315 106c0 -26 -6.99609 -47.6689 -20.9961 -65.002c-1.33301 -2.66699 -3 -5 -5 -7l-6 -6c-10.667 -10 -23 -17.167 -37 -21.5s-29.667 -6.5 -47 -6.5h-2c-32.667 0 -65 4.66699 -97 14s-59.667 20 -83 32v20c10.667 -6 23 -11.833 37 -17.5s28.833 -10.667 44.5 -15
s32 -8 49 -11s33.5 -4.5 49.5 -4.5c26.667 0 49.667 7 69 21c2.66699 2 5.16699 4 7.5 6s4.16602 4.33301 5.49902 7c5.33301 8 9.66602 17.667 12.999 29s5 24.666 5 39.999v19c0 11.333 -1 23.5 -3 36.5s-6.33301 25.167 -13 36.5c-6.66699 10.667 -16 19.5 -28 26.5
s-29.667 10.833 -53 11.5h-84c-25.333 0 -45.833 4.33301 -61.5 13s-27.5 19.667 -35.5 33s-13 27.5 -15 42.5s-3.33301 28.5 -4 40.5v15c0 26.667 7.33301 48.334 22 65.001c2.66699 4.66699 6 9 10 13c10.667 10 23.167 17.167 37.5 21.5s30.166 6.5 47.499 6.5h2
c32.667 0 65 -4.66699 97 -14s59.667 -20 83 -32v-20c-11.333 6 -24 11.833 -38 17.5s-28.833 10.667 -44.5 15s-31.834 8 -48.501 11s-33 4.5 -49 4.5c-13.333 0 -25.833 -1.66699 -37.5 -5s-22.167 -8.66602 -31.5 -15.999c-2.66699 -2 -5.16699 -4 -7.5 -6
s-4.5 -4.33301 -6.5 -7c-11.333 -16.667 -17 -39.667 -17 -69c0 -11.333 0.833008 -23.666 2.5 -36.999s5.83398 -25.333 12.501 -36s16.167 -19.5 28.5 -26.5s30.166 -10.833 53.499 -11.5h84c25.333 0 45.833 -4.5 61.5 -13.5s27.5 -20.167 35.5 -33.5s13 -27.333 15 -42
s3 -28 3 -40v-34z" />
    <glyph glyph-name="t" unicode="t" horiz-adv-x="240" 
d="M43 483v-362c0 -19.333 2.33301 -35.5 7 -48.5s11 -23.167 19 -30.5c16.667 -16 40.667 -24 72 -24h9v-18h-9c-17.333 0 -33 2.16699 -47 6.5s-26.333 11.5 -37 21.5c-21.333 21.333 -32 52.333 -32 93v362h-55v18h55v217h18v-217h107v-18h-107z" />
    <glyph glyph-name="u" unicode="u" horiz-adv-x="415" 
d="M32 28c-21.333 21.333 -32.002 52.333 -32.002 93v371v9h19v-380c0 -19.333 2.33301 -35.5 7 -48.5s11 -23.167 19 -30.5c16 -16 40 -24 72 -24c16 0 32.333 1.5 49 4.5s32.834 6.66699 48.501 11s30.5 9.33301 44.5 15s26.667 11.5 38 17.5v435h18v-445l-5 -3
c-11.333 -6.66699 -24.333 -13.167 -39 -19.5s-30.5 -12 -47.5 -17s-34.5 -9 -52.5 -12s-36 -4.5 -54 -4.5c-17.333 0 -33.166 2.16699 -47.499 6.5s-26.833 11.5 -37.5 21.5z" />
    <glyph glyph-name="v" unicode="v" horiz-adv-x="384" 
d="M282 501h19l-152 -501h-19l-149 501h19l139 -469z" />
    <glyph glyph-name="w" unicode="w" horiz-adv-x="711" 
d="M296 501l18.9971 0.000976562v-380c0 -19.333 2.33301 -35.5 7 -48.5s11 -23.167 19 -30.5c16 -16 40 -24 72 -24c16 0 32.333 1.5 49 4.5s32.834 6.66699 48.501 11s30.5 9.33301 44.5 15s26.667 11.5 38 17.5v435h18v-445l-5 -3
c-11.333 -6.66699 -24.333 -13.167 -39 -19.5s-30.5 -12 -47.5 -17s-34.5 -9 -52.5 -12s-36 -4.5 -54 -4.5c-17.333 0 -33.166 2.16699 -47.499 6.5s-26.833 11.5 -37.5 21.5c-3.33301 3.33301 -6.5 7.16602 -9.5 11.499s-5.83301 8.83301 -8.5 13.5
c-11.333 -6.66699 -24.5 -13.167 -39.5 -19.5s-31 -12 -48 -17s-34.5 -9 -52.5 -12s-36 -4.5 -54 -4.5c-17.333 0 -33 2.16699 -47 6.5s-26.333 11.5 -37 21.5c-21.333 21.333 -32 52.333 -32 93v380h18v-380c0 -19.333 2.33301 -35.5 7 -48.5s11.334 -23.167 20.001 -30.5
c16 -16 39.667 -24 71 -24c16 0 32.5 1.5 49.5 4.5s33.333 6.66699 49 11s30.5 9.33301 44.5 15s26.333 11.5 37 17.5v435z" />
    <glyph glyph-name="x" unicode="x" horiz-adv-x="366" 
d="M-9 0h-21l154 248l-154 253h22l141 -233l145 233h21l-155 -251l156 -250h-22l-143 231z" />
    <glyph glyph-name="y" unicode="y" horiz-adv-x="432" 
d="M355 501l19 -0.000976562l-208 -562c-14.667 -41.333 -35.667 -71.333 -63 -90s-58 -28 -92 -28h-2h-9v19h9c32 0 59.667 7.83301 83 23.5s42.333 42.834 57 81.501l22 59l-183 497h19l174 -471z" />
    <glyph glyph-name="z" unicode="z" horiz-adv-x="408" 
d="M22 18h285v-18h-306v20l288 463h-289v18h308v-23z" />
    <glyph glyph-name="guillemotleft" unicode="&#xab;" horiz-adv-x="393" 
d="M293 501l-154 -253l155 -248h-30l-155 247l154 254h30v0zM184 501l-154 -253l154 -248h-30l-154 247l154 254h30v0z" />
    <glyph glyph-name="registered" unicode="&#xae;" horiz-adv-x="282" 
d="M182 628c0 -19.333 -3.33301 -35 -10 -47s-14.667 -21.333 -24 -28s-19.166 -11 -29.499 -13s-19.5 -3 -27.5 -3s-17.167 1 -27.5 3s-20.166 6.33301 -29.499 13s-17.333 16 -24 28s-10 27.667 -10 47s3.33301 35 10 47s14.667 21.333 24 28s19.166 11 29.499 13
s19.5 3 27.5 3s17.167 -1 27.5 -3s20.166 -6.33301 29.499 -13s17.333 -16 24 -28s10 -27.667 10 -47zM140 565c7.33301 5.33301 13.833 12.833 19.5 22.5s8.5 23.167 8.5 40.5s-2.83301 30.833 -8.5 40.5s-12.167 17.167 -19.5 22.5c-8 5.33301 -16.333 9 -25 11
s-16.667 3 -24 3c-6.66699 0 -14.5 -1 -23.5 -3s-17.5 -5.66699 -25.5 -11c-7.33301 -5.33301 -13.833 -12.833 -19.5 -22.5s-8.5 -23.167 -8.5 -40.5s2.83301 -30.833 8.5 -40.5s12.167 -17.167 19.5 -22.5c8 -5.33301 16.5 -9 25.5 -11s16.833 -3 23.5 -3
c7.33301 0 15.333 1 24 3s17 5.66699 25 11zM126 568l-3.99902 0.00292969l-23 37h-6h-12c-4 0 -8 1 -12 3v-40h-12v103c0 7.33301 2.66699 13 8 17c4 3.33301 9.33301 5 16 5h12c3.33301 0 7.16602 -0.333008 11.499 -1s8.83301 -2.66699 13.5 -6
c4 -3.33301 7.33301 -7.5 10 -12.5s4 -11.5 4 -19.5v-10c0 -14.667 -4.66699 -25.334 -14 -32.001c-1.33301 -0.666992 -2.5 -1.33398 -3.5 -2.00098s-2.16699 -1.33398 -3.5 -2.00098l25 -40h-10zM81.001 617.003l12 0.000976562c6.66699 0 12.667 1.66699 18 5
c2.66699 2 4.83398 4.5 6.50098 7.5s2.5 7.83301 2.5 14.5v10c0 6.66699 -0.833008 11.5 -2.5 14.5s-3.83398 5.5 -6.50098 7.5c-5.33301 3.33301 -11.333 5 -18 5h-12c-4 0 -6.66699 -0.666992 -8 -2c-2.66699 -2.66699 -4 -5.33398 -4 -8.00098v-17v-24v-3
c0 -2.66699 1 -5 3 -7s5 -3 9 -3z" />
    <glyph glyph-name="acute" unicode="&#xb4;" 
d="M30 719l-0.000976562 -160c0 -42 -10.667 -73 -32 -93l-13 13c8.66699 8 15.334 18.5 20.001 31.5s7 29.167 7 48.5v21h-12v139h30z" />
    <glyph glyph-name="guillemotright" unicode="&#xbb;" horiz-adv-x="362" 
d="M30 501l154 -254l-154 -247h-30l154 248l-154 253h30zM139 501l154 -254l-154 -247h-30l154 248l-154 253h30z" />
    <glyph glyph-name="multiply" unicode="&#xd7;" horiz-adv-x="441" 
d="M341 238l-21 -21l-149 149l-150 -149l-21 21l150 149l-150 149l21 22l150 -150l149 150l21 -22l-149 -149l149 -149v0z" />
    <glyph glyph-name="agrave" unicode="&#xe0;" horiz-adv-x="453" 
d="M346 34c-9.33301 10.667 -13.9971 28.3291 -13.9971 52.9961v309c0 18 -3.5 33.833 -10.5 47.5s-16.167 24.834 -27.5 33.501s-24 15 -38 19s-28.333 6 -43 6c-36 0 -69 -5.66699 -99 -17s-56.333 -23.666 -79 -36.999l9 -16c22 12.667 47.167 24.334 75.5 35.001
s59.5 16 93.5 16c13.333 0 26 -1.5 38 -4.5s22.667 -8.16699 32 -15.5s16.666 -16.333 21.999 -27s8.33301 -24 9 -40c-0.666992 -17.333 -5.33398 -30.666 -14.001 -39.999s-19.667 -17.333 -33 -24c-13.333 -6 -28 -10.5 -44 -13.5s-30.333 -6.16699 -43 -9.5
c-25.333 -5.33301 -48.833 -12.333 -70.5 -21s-40.834 -20 -57.501 -34c-16 -14 -28.667 -31 -38 -51s-14 -44 -14 -72c-0 -18 3.33301 -34.833 10 -50.5s15.667 -29.5 27 -41.5c12 -12 26 -21.5 42 -28.5s33.667 -10.5 53 -10.5h4c31.333 1.33301 62.5 8.5 93.5 21.5
s59.167 29.167 84.5 48.5c2 -20 8 -36 18 -48c12 -14.667 30.333 -22 55 -22v18c-19.333 0.666992 -33 6 -41 16zM136.003 17.9951l-3.99902 0.00195312c-16.667 0 -32 3.16699 -46 9.5s-26 14.5 -36 24.5s-17.833 21.833 -23.5 35.5s-8.5 28.167 -8.5 43.5
c0 25.333 4 46.666 12 63.999s19.333 32.333 34 45s32.167 23 52.5 31s42.833 14.667 67.5 20c12 3.33301 26.167 6.5 42.5 9.5s32.166 7.83301 47.499 14.5c7.33301 3.33301 14.5 7.33301 21.5 12s13.167 10 18.5 16v-251c-25.333 -20.667 -53.833 -37.834 -85.5 -51.501
s-62.5 -21.167 -92.5 -22.5zM124.004 705.997l14.001 13c17.333 -18.667 38.166 -37.334 62.499 -56.001s52.5 -32.667 84.5 -42l-6 -17c-34 10 -63.833 24.833 -89.5 44.5s-47.5 38.834 -65.5 57.501z" />
    <glyph glyph-name="acircumflex" unicode="&#xe2;" horiz-adv-x="453" 
d="M346 34c8 -10 21.666 -14.9971 40.999 -14.9971v-19c-24 0 -42.333 7.33301 -55 22c-9.33301 11.333 -15 27.333 -17 48c-25.333 -19.333 -53.666 -35.5 -84.999 -48.5s-62.666 -20.167 -93.999 -21.5h-4c-19.333 0 -37 3.5 -53 10.5s-29.667 16.5 -41 28.5
c-25.333 25.333 -38 56 -38 92c0 28 4.66699 52.167 14 72.5s22.333 37.166 39 50.499c16.667 14 35.667 25.333 57 34s44.666 15.667 69.999 21c12.667 3.33301 27 6.5 43 9.5s30.667 7.5 44 13.5c14 6.66699 25.333 14.667 34 24s13 22.666 13 39.999
c0 16 -2.83301 29.333 -8.5 40s-13.167 19.667 -22.5 27s-20 12.5 -32 15.5s-24.333 4.5 -37 4.5c-34 0 -65.333 -5.33301 -94 -16s-53.667 -22 -75 -34l-9 16c22.667 12.667 49 24.667 79 36s63 17 99 17c14 0 28 -2 42 -6s26.667 -10.333 38 -19s20.5 -19.667 27.5 -33
s10.5 -29.333 10.5 -48v-309c0 -24.667 4.66699 -42.334 14 -53.001zM135.999 19.0029c30 0.666992 60.832 7.99902 92.499 21.999s60.167 31.333 85.5 52v250c-10.667 -11.333 -23.667 -20.666 -39 -27.999c-15.333 -6.66699 -31.333 -11.5 -48 -14.5
s-31 -6.16699 -43 -9.5c-24 -5.33301 -46.167 -12 -66.5 -20s-37.833 -18.333 -52.5 -31c-14.667 -12 -26 -26.833 -34 -44.5s-12.333 -39.167 -13 -64.5c0 -15.333 3 -29.833 9 -43.5s14 -25.5 24 -35.5s21.833 -18 35.5 -24s28.834 -9 45.501 -9h4zM296.998 613.002
c-24 10 -45.5 22.167 -64.5 36.5s-36.167 28.833 -51.5 43.5c-15.333 -14.667 -32.5 -29.167 -51.5 -43.5s-40.5 -26.5 -64.5 -36.5v20c21.333 9.33301 40.5 20.5 57.5 33.5s32.167 26.167 45.5 39.5c2.66699 2 5 4.16699 7 6.5s4 4.5 6 6.5c2 -2 4 -4.16699 6 -6.5
s4.33301 -4.5 7 -6.5c13.333 -13.333 28.5 -26.5 45.5 -39.5s36.167 -24.167 57.5 -33.5v-20z" />
    <glyph glyph-name="ccedilla" unicode="&#xe7;" horiz-adv-x="415" 
d="M44 460c-8 -8 -14.335 -18.3379 -19.002 -31.0049s-7 -28.667 -7 -48v-260c0 -19.333 2.33301 -35.333 7 -48s11 -23 19 -31c16.667 -16 40.667 -24 72 -24c16 0 32.5 1.5 49.5 4.5s33.333 6.66699 49 11s30.5 9.5 44.5 15.5s26.333 12 37 18l9 4.5
c3.33301 1.66699 6.66602 3.16699 9.99902 4.5v-20c-3.33301 -2 -6.66602 -3.83301 -9.99902 -5.5l-9 -4.5c-19.333 -9.33301 -41.833 -18.166 -67.5 -26.499s-52.167 -14.166 -79.5 -17.499v-3c12 -3.33301 22 -8.33301 30 -15c11.333 -10 17 -23 17 -39
c0 -6.66699 -1 -13.334 -3 -20.001c-4.66699 -12 -12.667 -21 -24 -27c-6 -3.33301 -13 -6.16602 -21 -8.49902s-17.333 -3.5 -28 -3.5v19c12.667 0 22.667 1.33301 30 4s13 6 17 10c4.66699 4.66699 7.33398 8.66699 8.00098 12c2 4.66699 3 9.33398 3 14.001
c0 10.667 -3.66699 19 -11 25c-8.66699 7.33301 -19 11 -31 11v20c-3.33301 -0.666992 -6.66602 -1 -9.99902 -1h-10c-17.333 0 -33 2.16699 -47 6.5s-26.333 11.833 -37 22.5c-21.333 20 -32 50.667 -32 92v260c0 41.333 10.667 72 32 92c10.667 10 23 17.333 37 22
s29.667 7 47 7c32.667 0 65 -4.83301 97 -14.5s59.667 -20.167 83 -31.5l9 -4.5c3.33301 -1.66699 6.66602 -3.5 9.99902 -5.5v-21c-3.33301 2 -6.66602 3.83301 -9.99902 5.5l-9 4.5c-10.667 6 -23 11.833 -37 17.5s-28.833 10.834 -44.5 15.501s-32 8.33398 -49 11.001
s-33.5 4 -49.5 4c-32 0 -56 -7.66699 -72 -23z" />
    <glyph glyph-name="egrave" unicode="&#xe8;" horiz-adv-x="432" 
d="M216 214c25.333 0 45.998 4.49902 61.998 13.499s28 20.167 36 33.5s13 27.333 15 42s3 28.334 3 41.001v52c0 25.333 -7 47 -21 65c-1.33301 2 -3 4 -5 6l-6 6c-20 19.333 -48.333 29 -85 29h-2c-18.667 0 -40 -2.5 -64 -7.5s-47.333 -15.167 -70 -30.5
c-21.333 -14.667 -39.333 -35 -54 -61s-23 -59.333 -25 -100v-172c0 -18 3.33301 -34.833 10 -50.5s15.667 -29.5 27 -41.5c12 -12 26 -21.5 42 -28.5s33.667 -10.5 53 -10.5h4c34 1.33301 68 9.66602 102 24.999s64.333 34 91 56l-12 14
c-25.333 -21.333 -54.166 -39.166 -86.499 -53.499s-63.833 -21.833 -94.5 -22.5c-1.33301 -0.666992 -2.66602 -1 -3.99902 -1c-16.667 0 -32 3.16699 -46 9.5s-26 14.5 -36 24.5s-17.833 21.833 -23.5 35.5s-8.5 28.167 -8.5 43.5l1 83h197zM18.998 314.999
c3.33301 34.667 11.499 62.499 24.499 83.499s28.5 37.833 46.5 50.5c19.333 13.333 40.333 22.333 63 27s42.667 7 60 7c13.333 0 26 -1.5 38 -4.5s22.667 -8.16699 32 -15.5c2.66699 -2 5 -4.16699 7 -6.5s4 -4.83301 6 -7.5c11.333 -15.333 17 -38 17 -68v-37
c0.666992 -11.333 0 -23.666 -2 -36.999s-6.33301 -25.333 -13 -36c-6.66699 -11.333 -16.167 -20.5 -28.5 -27.5s-30.166 -10.5 -53.499 -10.5h-197v82zM106.997 705.998l14.001 13c17.333 -18.667 38.166 -37.334 62.499 -56.001s52.5 -32.667 84.5 -42l-6 -17
c-34 10 -63.833 24.833 -89.5 44.5s-47.5 38.834 -65.5 57.501z" />
    <glyph glyph-name="eacute" unicode="&#xe9;" horiz-adv-x="432" 
d="M255 706c-17.333 -18.667 -38.8311 -37.834 -64.498 -57.501s-55.834 -34.5 -90.501 -44.5l-5 17c32 9.33301 60.167 23.333 84.5 42s45.166 37.334 62.499 56.001zM19.002 214l-0.998047 -82.999c0 -15.333 2.83301 -29.833 8.5 -43.5s13.5 -25.5 23.5 -35.5
s22 -18.167 36 -24.5s29.333 -9.5 46 -9.5c1.33301 0 2.66602 0.333008 3.99902 1c30.667 0.666992 62.167 8.16699 94.5 22.5s61.166 32.166 86.499 53.499l12 -14c-26.667 -22 -57 -40.667 -91 -56s-68 -23.666 -102 -24.999h-4c-19.333 0 -37 3.5 -53 10.5
s-30 16.5 -42 28.5c-11.333 12 -20.333 25.833 -27 41.5s-10 32.5 -10 50.5v172c2 40.667 10.333 74 25 100s32.667 46.333 54 61c22.667 15.333 46 25.5 70 30.5s45.333 7.5 64 7.5h2c36.667 0 65 -9.66699 85 -29l6 -6c2 -2 3.66699 -4 5 -6c14 -18 21 -39.667 21 -65v-52
c0 -12.667 -1 -26.334 -3 -41.001s-7 -28.667 -15 -42s-20 -24.5 -36 -33.5s-36.667 -13.5 -62 -13.5h-197zM19.0039 233.001l197.001 0.000976562c23.333 0 41.166 3.5 53.499 10.5s21.833 16.167 28.5 27.5c6.66699 10.667 11 22.667 13 36s2.66699 25.666 2 36.999v37
c0 30 -5.66699 52.667 -17 68c-2 2.66699 -4 5.16699 -6 7.5s-4.33301 4.5 -7 6.5c-9.33301 7.33301 -20 12.5 -32 15.5s-24.667 4.5 -38 4.5c-17.333 0 -37.333 -2.33301 -60 -7s-43.667 -13.667 -63 -27c-18 -12.667 -33.5 -29.5 -46.5 -50.5s-21.167 -48.833 -24.5 -83.5
v-82z" />
    <glyph glyph-name="ecircumflex" unicode="&#xea;" horiz-adv-x="432" 
d="M19 214l-1.00098 -82.999c0.666992 -30.667 11.5 -57 32.5 -79s48.5 -33.333 82.5 -34c1.33301 0 2.33301 0.333008 3 1c31.333 0.666992 63 8.16699 95 22.5s60.667 32.166 86 53.499l12 -14c-26.667 -22 -57 -40.667 -91 -56s-68 -23.666 -102 -24.999h-3
c-19.333 0 -37.166 3.5 -53.499 10.5s-30.166 16.5 -41.499 28.5c-25.333 25.333 -38 56 -38 92v172c2 40.667 10.5 74 25.5 100s33.167 46.333 54.5 61c22 15.333 45.167 25.5 69.5 30.5s45.833 7.5 64.5 7.5h2c17.333 0 33.166 -2.33301 47.499 -7s26.5 -12 36.5 -22l6 -6
c2 -2 3.66699 -4 5 -6c14 -18 21 -39.667 21 -65v-52c0 -12.667 -1 -26.334 -3 -41.001s-7 -28.667 -15 -42s-19.833 -24.5 -35.5 -33.5s-36.167 -13.5 -61.5 -13.5h-198zM18.999 233.001l197.001 0.000976562c23.333 0 41.166 3.5 53.499 10.5s21.833 16.167 28.5 27.5
c7.33301 10.667 11.833 22.667 13.5 36s2.5 25.666 2.5 36.999v37c0 30 -5.66699 52.667 -17 68c-4 5.33301 -8.66699 10 -14 14c-9.33301 7.33301 -20 12.5 -32 15.5s-24.333 4.5 -37 4.5c-17.333 0 -37.333 -2.33301 -60 -7s-44 -13.667 -64 -27
c-17.333 -12.667 -32.5 -29.5 -45.5 -50.5s-21.167 -48.833 -24.5 -83.5zM300 613.002c-24 9.33301 -45.5 21.166 -64.5 35.499s-36.167 29.166 -51.5 44.499c-15.333 -15.333 -32.5 -30.166 -51.5 -44.499s-40.5 -26.166 -64.5 -35.499v20
c21.333 9.33301 40.5 20.5 57.5 33.5s32.167 26.167 45.5 39.5c4.66699 4 9 8.33301 13 13c4 -4.66699 8.33301 -9 13 -13c13.333 -13.333 28.5 -26.5 45.5 -39.5s36.167 -24.167 57.5 -33.5v-20z" />
    <glyph glyph-name="edieresis" unicode="&#xeb;" horiz-adv-x="433" 
d="M245 621h-18v98h18v-98zM145 621h-19v98h19v-98zM19 214l-1.00098 -83c0 -15.333 3 -29.833 9 -43.5s14 -25.5 24 -35.5s21.833 -18 35.5 -24s28.834 -9 45.501 -9h4c31.333 0.666992 63 8.16699 95 22.5s60.667 32.166 86 53.499l12 -14
c-26.667 -22 -57 -40.667 -91 -56s-68 -23.666 -102 -24.999h-4c-19.333 0 -37 3.5 -53 10.5s-29.667 16.5 -41 28.5c-25.333 25.333 -38 56 -38 92v172c2 40.667 10.5 74 25.5 100s33.167 46.333 54.5 61c22 15.333 45.167 25.5 69.5 30.5s45.833 7.5 64.5 7.5h2
c17.333 0 33 -2.33301 47 -7s26.333 -12 37 -22l6 -6c2 -2 3.66699 -4 5 -6c14 -18 21 -39.667 21 -65v-52c0 -12 -1 -25.5 -3 -40.5s-7 -29.167 -15 -42.5s-19.833 -24.5 -35.5 -33.5s-36.167 -13.5 -61.5 -13.5h-198zM18.999 233l197.001 0.000976562
c23.333 0 41.166 3.5 53.499 10.5s21.833 16.167 28.5 27.5c6.66699 10.667 11 22.667 13 36s3 25.666 3 36.999v37c0 30 -5.66699 52.667 -17 68c-4 5.33301 -8.66699 10 -14 14c-9.33301 7.33301 -20 12.5 -32 15.5s-24.333 4.5 -37 4.5
c-17.333 0 -37.333 -2.33301 -60 -7s-44 -13.667 -64 -27c-17.333 -12.667 -32.5 -29.5 -45.5 -50.5s-21.167 -48.833 -24.5 -83.5z" />
    <glyph glyph-name="icircumflex" unicode="&#xee;" horiz-adv-x="279" 
d="M78 502v-502h-18v502h18zM184 613c-24.667 9.33301 -46.498 21.166 -65.498 35.499s-36.167 29.166 -51.5 44.499c-14.667 -15.333 -31.667 -30.166 -51 -44.499s-41 -26.166 -65 -35.499v20c21.333 9.33301 40.5 20.5 57.5 33.5s32.167 26.167 45.5 39.5
c4.66699 4 9 8.33301 13 13c2 -2.66699 4.16699 -5 6.5 -7s4.5 -4 6.5 -6c13.333 -13.333 28.666 -26.5 45.999 -39.5s36.666 -24.167 57.999 -33.5v-20z" />
    <glyph glyph-name="ocircumflex" unicode="&#xf4;" horiz-adv-x="432" 
d="M294 477c11.333 -8.66699 20.499 -19.833 27.499 -33.5s10.5 -29.5 10.5 -47.5v-182c0.666992 -45.333 -6.66602 -82.166 -21.999 -110.499s-34.333 -50.166 -57 -65.499s-46 -25.5 -70 -30.5s-45.333 -7.5 -64 -7.5c-14.667 0 -28.834 1.83301 -42.501 5.5
s-26.167 10.167 -37.5 19.5c-11.333 8.66699 -20.666 19.667 -27.999 33s-11 29.333 -11 48v182c0 45.333 7.66699 82.166 23 110.499s34.333 50.166 57 65.499c22 15.333 45.167 25.5 69.5 30.5s45.833 7.5 64.5 7.5c14 0 28 -2 42 -6s26.667 -10.333 38 -19z
M241.999 53.001c20 14 37 33.499 51 58.499s21 59.167 21 102.5v182c0 16 -2.83301 29.333 -8.5 40s-13.167 19.667 -22.5 27s-20 12.5 -32 15.5s-24.333 4.5 -37 4.5c-17.333 0 -37.333 -2.33301 -60 -7s-44 -13.667 -64 -27c-19.333 -14 -36 -33.667 -50 -59
s-21 -59.333 -21 -102v-182c0 -16 2.83301 -29.333 8.5 -40s13.167 -19.667 22.5 -27s20 -12.666 32 -15.999s24.333 -5 37 -5c17.333 0 37.333 2.5 60 7.5s43.667 14.167 63 27.5zM279.999 613c-24 9.33301 -45.5 21.166 -64.5 35.499s-36.167 29.166 -51.5 44.499
c-15.333 -15.333 -32.5 -30.166 -51.5 -44.499s-40.5 -26.166 -64.5 -35.499v20c21.333 9.33301 40.5 20.5 57.5 33.5s32.167 26.167 45.5 39.5c4.66699 4 9 8.33301 13 13c4 -4.66699 8.33301 -9 13 -13c13.333 -13.333 28.5 -26.5 45.5 -39.5s36.167 -24.167 57.5 -33.5
v-20z" />
    <glyph glyph-name="odieresis" unicode="&#xf6;" horiz-adv-x="431" 
d="M294 477c11.333 -8.66699 20.5 -19.833 27.5 -33.5s10.5 -29.5 10.5 -47.5v-182c0 -45.333 -7.66699 -82.166 -23 -110.499s-34 -50.166 -56 -65.499c-22.667 -15.333 -46 -25.5 -70 -30.5s-45.333 -7.5 -64 -7.5c-14.667 0 -28.834 1.83301 -42.501 5.5
s-26.167 10.167 -37.5 19.5c-11.333 8.66699 -20.666 19.667 -27.999 33s-11 29.333 -11 48v182c0 45.333 7.66699 82.166 23 110.499s34.333 50.166 57 65.499c22 15.333 45.167 25.5 69.5 30.5s45.833 7.5 64.5 7.5c14 0 28 -2 42 -6s26.667 -10.333 38 -19zM242 53.001
c20 14 37 33.499 51 58.499s21 59.167 21 102.5v182c0 16 -2.83301 29.333 -8.5 40s-13.167 19.667 -22.5 27s-20 12.5 -32 15.5s-24.333 4.5 -37 4.5c-17.333 0 -37.333 -2.33301 -60 -7s-44 -13.667 -64 -27c-19.333 -14 -36 -33.667 -50 -59s-21 -59.333 -21 -102v-182
c0 -16 2.83301 -29.333 8.5 -40s13.167 -19.667 22.5 -27s20 -12.666 32 -15.999s24.333 -5 37 -5c17.333 0 37.333 2.5 60 7.5s43.667 14.167 63 27.5zM226 621h-19v98h19v-98zM125 621h-18v98h18v-98z" />
    <glyph glyph-name="divide" unicode="&#xf7;" horiz-adv-x="569" 
d="M249 120h-30v139h30v-139zM0 373v29h469v-29h-469zM220 655h30v-138h-30v138z" />
    <glyph glyph-name="ugrave" unicode="&#xf9;" horiz-adv-x="415" 
d="M32 29c-21.333 20 -32.002 50.667 -32.002 92v372v9h19v-381c0 -19.333 2.33301 -35.333 7 -48s11 -23 19 -31c15.333 -15.333 39.333 -23 72 -23s65.334 5 98.001 15s60 21 82 33v435h18v-446l-5 -2c-11.333 -6.66699 -24.333 -13.167 -39 -19.5s-30.5 -12 -47.5 -17
s-34.5 -9.16699 -52.5 -12.5s-36 -5 -54 -5c-17.333 -0 -33.166 2.33301 -47.499 7s-26.833 12 -37.5 22zM78.998 706l14.001 13c17.333 -18 38.166 -36.333 62.499 -55s52.5 -33 84.5 -43l-6 -17c-34 10.667 -63.833 25.667 -89.5 45s-47.5 38.333 -65.5 57z" />
    <glyph glyph-name="ucircumflex" unicode="&#xfb;" horiz-adv-x="415" 
d="M32 29c-21.333 20 -32 50.667 -32 92v371v10h18v-381c0 -36.667 8.66699 -63 26 -79c16.667 -16 40.667 -24 72 -24c16 0 32.5 1.5 49.5 4.5s33.333 6.66699 49 11s30.5 9.5 44.5 15.5s26.333 12 37 18v435h19v-446l-5 -3c-11.333 -6.66699 -24.5 -13.167 -39.5 -19.5
s-31 -12 -48 -17s-34.5 -9 -52.5 -12s-36 -4.5 -54 -4.5c-17.333 0 -33 2.16699 -47 6.5s-26.333 11.833 -37 22.5zM278 613c-24 9.33301 -45.5 21.166 -64.5 35.499s-36.167 28.833 -51.5 43.5c-15.333 -14.667 -32.5 -29.167 -51.5 -43.5s-40.5 -26.166 -64.5 -35.499v19
c21.333 9.33301 40.5 20.666 57.5 33.999s32.167 26.666 45.5 39.999c4.66699 4 9 8.33301 13 13c4 -4.66699 8.33301 -9 13 -13c13.333 -13.333 28.5 -26.666 45.5 -39.999s36.167 -24.666 57.5 -33.999v-19z" />
    <glyph glyph-name="OE" unicode="&#x152;" horiz-adv-x="898" 
d="M435 677c-8 -8 -14.333 -18.3359 -19 -31.0029s-7 -28.667 -7 -48v-230h284v-19h-284v-135v-93c0 -19.333 2.33301 -35.5 7 -48.5s11 -23.167 19 -30.5c16 -16 40 -24 72 -24c26.667 0 54.667 2 84 6s57.166 8.66699 83.499 14s50.5 10.833 72.5 16.5l51 13.5v-18
l-51 -13.5c-22 -5.66699 -46.167 -11.167 -72.5 -16.5s-54.166 -10 -83.499 -14s-57.333 -6 -84 -6c-17.333 0 -33.166 2.16699 -47.499 6.5s-26.833 11.5 -37.5 21.5c-20 20 -30.333 48.667 -31 86c-7.33301 -17.333 -16.333 -32.166 -27 -44.499
s-22.334 -22.833 -35.001 -31.5c-22 -15.333 -45.167 -25.5 -69.5 -30.5s-45.833 -7.5 -64.5 -7.5h-76c-14 0 -28 1.83301 -42 5.5s-26.667 9.83398 -38 18.501s-20.666 19.834 -27.999 33.501s-11 29.834 -11 48.501v398c0 46 7.66699 83 23 111s34.333 49.667 57 65
s46 25.5 70 30.5s45.333 7.5 64 7.5h76c14.667 0 29 -1.83301 43 -5.5s26.667 -9.83398 38 -18.501c6 -5.33301 11.5 -11 16.5 -17s9.16699 -13 12.5 -21c6 14 13.333 25.333 22 34c10.667 10 23.167 17.167 37.5 21.5s30.166 6.5 47.499 6.5
c26.667 0 54.667 -1.83301 84 -5.5s57.166 -8.16699 83.499 -13.5s50.5 -10.833 72.5 -16.5s39 -10.5 51 -14.5v-18l-51 13.5c-22 5.66699 -46.167 11.167 -72.5 16.5s-54.166 10 -83.499 14s-57.333 6 -84 6c-31.333 0 -55.333 -7.66699 -72 -23zM391 611.997
c-0.666992 16 -3.66895 29.332 -9.00195 39.999s-12.666 19.667 -21.999 27c-19.333 14 -42.666 21 -69.999 21h-76c-17.333 0 -37.333 -2.33301 -60 -7s-44 -14 -64 -28c-19.333 -14 -36 -33.5 -50 -58.5s-21 -59.167 -21 -102.5v-398c0 -16 2.83301 -29.333 8.5 -40
s13.167 -19.667 22.5 -27s20 -12.666 32 -15.999s24.333 -5 37 -5h77c17.333 0 37.166 2.33301 59.499 7s43.5 14 63.5 28s36.833 33.5 50.5 58.5s20.834 59.167 21.501 102.5v398z" />
    <glyph glyph-name="oe" unicode="&#x153;" horiz-adv-x="745" 
d="M645 381l0.00292969 -36.998c0 -12.667 -1 -26.334 -3 -41.001s-7 -28.667 -15 -42s-19.833 -24.5 -35.5 -33.5s-36.167 -13.5 -61.5 -13.5h-198l-1 -83c0 -15.333 2.83301 -29.833 8.5 -43.5s13.5 -25.5 23.5 -35.5s22 -18.167 36 -24.5s29.333 -9.5 46 -9.5
c2 0 3.33301 0.333008 4 1c31.333 0.666992 63 8.16699 95 22.5s60.667 32.166 86 53.499l12 -14c-26.667 -22 -57 -40.667 -91 -56s-68 -23.666 -102 -24.999h-4c-19.333 0 -37 3.5 -53 10.5s-30 16.5 -42 28.5c-20.667 20.667 -32.667 46.334 -36 77.001
c-7.33301 -17.333 -16.333 -32.5 -27 -45.5s-22.334 -23.833 -35.001 -32.5c-22 -15.333 -45.167 -25.5 -69.5 -30.5s-45.833 -7.5 -64.5 -7.5c-14 0 -28 2 -42 6s-26.667 10.333 -38 19s-20.5 19.667 -27.5 33s-10.5 29.333 -10.5 48v182
c-0.666992 45.333 6.66602 82.166 21.999 110.499s34.333 50.166 57 65.499s46 25.5 70 30.5s45.333 7.5 64 7.5c14.667 0 28.834 -2 42.501 -6s26.167 -10.333 37.5 -19s20.666 -19.667 27.999 -33s11 -29.333 11 -48v-7c7.33301 17.333 16.166 32 26.499 44
s21.5 22.333 33.5 31c22.667 15.333 46.167 25.5 70.5 30.5s45.833 7.5 64.5 7.5h2c17.333 0 33 -2.33301 47 -7s26.333 -12 37 -22c5.33301 -5.33301 9 -9.33301 11 -12c14 -18 21 -39.667 21 -65v-15zM313.003 396.002c0 16 -2.83301 29.3311 -8.5 39.998
s-13.167 19.667 -22.5 27s-20 12.5 -32 15.5s-24.333 4.5 -37 4.5c-17.333 0 -37.333 -2.33301 -60 -7s-43.667 -13.667 -63 -27c-20 -14 -37 -33.5 -51 -58.5s-21 -59.167 -21 -102.5v-182c0 -16 2.83301 -29.333 8.5 -40s13.167 -19.667 22.5 -27s20 -12.666 32 -15.999
s24.333 -4.66602 37 -3.99902c17.333 0 37.333 2.33301 60 7s44 13.667 64 27c19.333 14 36 33.5 50 58.5s21 59.167 21 102.5v89v93zM627.003 381c0 15.333 -1.66699 28.6689 -5 40.002s-7.66602 20.666 -12.999 27.999c-2 2.66699 -4 5.16699 -6 7.5s-4.33301 4.5 -7 6.5
c-9.33301 7.33301 -20 12.5 -32 15.5s-24.333 4.5 -37 4.5c-17.333 0 -37.333 -2.33301 -60 -7s-44 -13.667 -64 -27c-18 -12.667 -33.5 -29.5 -46.5 -50.5s-21.167 -48.833 -24.5 -83.5v-82h197c23.333 0 41.166 3.5 53.499 10.5s21.833 16.167 28.5 27.5
c6.66699 10.667 11 22.667 13 36s3 25.666 3 36.999v37z" />
    <glyph glyph-name="endash" unicode="&#x2013;" horiz-adv-x="395" 
d="M295 259h-295v30h295v-30v0z" />
    <glyph glyph-name="quoteleft" unicode="&#x2018;" 
d="M0 466v160c0 40.667 10.667 71.667 32 93l13 -14c-8 -7.33301 -14.333 -17.5 -19 -30.5s-7 -29.167 -7 -48.5v-22h11v-138h-30z" />
    <glyph glyph-name="quoteright" unicode="&#x2019;" 
d="M30 719l-0.000976562 -160c0 -42 -10.667 -73 -32 -93l-13 13c8.66699 8 15.334 18.5 20.001 31.5s7 29.167 7 48.5v21h-12v139h30z" />
    <glyph glyph-name="quotesinglbase" unicode="&#x201a;" 
d="M30 139v-160c0 -42 -10.667 -73 -32 -93l-12 13c8 8 14.333 18.5 19 31.5s7 29.167 7 48.5v21h-12v139h30z" />
    <glyph glyph-name="quotedblleft" unicode="&#x201c;" horiz-adv-x="194" 
d="M0 466v160c0 40.667 10.667 71.667 32 93l13 -14c-8 -7.33301 -14.333 -17.5 -19 -30.5s-7 -29.167 -7 -48.5v-22h11v-138h-30zM74 466v160c0 40.667 10.667 71.667 32 93l13 -14c-8 -7.33301 -14.333 -17.5 -19 -30.5s-7 -29.167 -7 -48.5v-22h11v-138h-30z" />
    <glyph glyph-name="quotedblright" unicode="&#x201d;" horiz-adv-x="204" 
d="M104 719v-160c0 -42 -10.667 -73 -32 -93l-13 13c8 8 14.333 18.5 19 31.5s7 29.167 7 48.5v21h-11v139h30zM30 719l-0.000976562 -160c0 -42 -10.667 -73 -32 -93l-13 13c8.66699 8 15.334 18.5 20.001 31.5s7 29.167 7 48.5v21h-12v139h30z" />
    <glyph glyph-name="ellipsis" unicode="&#x2026;" horiz-adv-x="334" 
d="M30 138v-138h-30v138h30zM132 138v-138h-30v138h30zM234 138v-138h-30v138h30z" />
    <glyph glyph-name="Euro" unicode="&#x20ac;" horiz-adv-x="550" 
d="M97 677c-8 -7.33301 -14.333 -17.5 -19 -30.5s-7 -29.167 -7 -48.5v-176h284v-18h-284v-86h284v-19h-284v-178c0 -19.333 2.33301 -35.333 7 -48s11 -23 19 -31c16 -15.333 40 -23 72 -23c27.333 0 55.666 2 84.999 6s57.166 8.66699 83.499 14s50.333 10.833 72 16.5
l50.5 13.5v-19l-50.5 -13.5c-21.667 -5.66699 -45.667 -11.167 -72 -16.5s-54.166 -10 -83.499 -14s-57.666 -6 -84.999 -6c-17.333 -0 -33 2.33301 -47 7s-26.333 12 -37 22c-21.333 20 -32 50.667 -32 92v178h-53v19h53v86h-53v18h53v176c0 40.667 10.667 71.667 32 93
c10.667 10 23 17.167 37 21.5s29.667 6.5 47 6.5c27.333 0 55.666 -2 84.999 -6s57.166 -8.66699 83.499 -14s50.333 -10.833 72 -16.5l50.5 -13.5v-18l-50.5 13.5c-21.667 5.66699 -45.667 11.167 -72 16.5s-54.166 10 -83.499 14s-57.666 6 -84.999 6
c-31.333 0 -55.333 -8 -72 -24z" />
    <glyph glyph-name="minus" unicode="&#x2212;" horiz-adv-x="454" 
d="M0 373v29h354v-29h-354z" />
    <glyph glyph-name="fi" unicode="&#xfb01;" horiz-adv-x="396" 
d="M296 501l0.000976562 -501h-19v483h-236v-483h-19v483h-55v18h55v96c0 42 10.667 73 32 93c10.667 10 23.167 17.167 37.5 21.5s30.166 6.5 47.499 6.5c22 0 45.333 -2.66699 70 -8l9 -1l-4 -18l-9 2c-11.333 2 -22.5 3.66699 -33.5 5s-21.833 2 -32.5 2
c-31.333 0 -55.333 -7.66699 -72 -23c-8 -8 -14.333 -18.5 -19 -31.5s-7 -29.167 -7 -48.5v-96h236h19z" />
    <glyph glyph-name="fl" unicode="&#xfb02;" horiz-adv-x="486" 
d="M404 18l0.000976562 -18h-10c-17.333 0 -33 2.16699 -47 6.5s-26.333 11.5 -37 21.5c-21.333 20 -32 51 -32 93v362h-237v-483h-19v483h-55v18h55v96c0 42 10.667 73 32 93c10.667 10 23.167 17.167 37.5 21.5s30.166 6.5 47.499 6.5c22 0 45.333 -2.66699 70 -8l9 -1
l-4 -18l-9 2c-11.333 2 -22.5 3.66699 -33.5 5s-21.833 2 -32.5 2c-31.333 0 -55.333 -7.66699 -72 -23c-17.333 -16 -26 -42.667 -26 -80v-96h237v217h19v-597c0 -37.333 8.66699 -64 26 -80c16.667 -15.333 40.667 -23 72 -23h9z" />
    <glyph glyph-name=".null" horiz-adv-x="0" 
 />
    <glyph glyph-name="nonmarkingreturn" horiz-adv-x="241" 
 />
  </font>
</defs>
</svg>
